
<?xml version="1.0" standalone="no"?>
<!DOCTYPE svg PUBLIC "-//W3C//DTD SVG 1.1//EN" "http://www.w3.org/Graphics/SVG/1.1/DTD/svg11.dtd" >
<svg xmlns="http://www.w3.org/2000/svg" xmlns:xlink="http://www.w3.org/1999/xlink" version="1.1">
<metadata>
Created by FontForge 20150225 at Wed Feb 25 16:14:34 2015
 By Heather Arthur
Created by Heather Arthur with FontForge 2.0 (http://fontforge.sf.net)
</metadata>
<defs>
<font id="medium-icons" horiz-adv-x="410" >
  <font-face
    font-family="medium-icons"
    font-weight="500"
    font-stretch="normal"
    units-per-em="512"
    panose-1="2 0 6 3 0 0 0 0 0 0"
    ascent="448"
    descent="-64"
    bbox="-0.118812 -84 628 466"
    underline-thickness="25"
    underline-position="-52"
    unicode-range="U+F101-F174"
  />
<missing-glyph horiz-adv-x="187"
d="M17 0v341h136v-341h-136zM34 17h102v307h-102v-307z" />
    <glyph glyph-name=".notdef" horiz-adv-x="187"
d="M17 0v341h136v-341h-136zM34 17h102v307h-102v-307z" />
    <glyph glyph-name=".null" horiz-adv-x="0"
 />
    <glyph glyph-name="nonmarkingreturn" horiz-adv-x="170"
 />
    <glyph glyph-name="uniF101" unicode="&#xf101;" horiz-adv-x="460"
d="M0 205q0 8 6 14t15 6h81q5 0 8 -3q4 -4 5 -6l1 -4l14 -41l43 189q3 9 12 14q3 2 8 2t8 -1q8 -3 11 -13l68 -272l28 163q5 25 21 25q7 0 11 -3t6 -6l2 -3l30 -112h62q9 0 15 -6q5 -7 5 -13t-6 -14q-5 -6 -14 -6h-61h-5h-6l-4 1h-5l-4 2l-4 3l-3 4l-3 5l-9 36l-30 -157
q-3 -12 -11 -20q-7 -7 -17 -7t-17 7q-8 8 -11 20l-54 244l-43 -176q-4 -10 -8 -13q-5 -4 -11 -4q-7 0 -11 4t-7 11l-28 110h-67q-8 0 -15 7q-6 6 -6 14v-1z" />
    <glyph glyph-name="uniF102" unicode="&#xf102;" horiz-adv-x="381"
d="M6 196q-6 24 -6 49t6 49q14 50 50 86q37 36 86 49q26 6 49 6q25 0 49 -6q51 -14 86 -49t49 -86q6 -25 6 -49q0 -26 -6 -50q-13 -49 -49 -85t-86 -50q-26 -6 -50 -6q-25 0 -49 6q-48 13 -85 50q-37 39 -50 86zM41 205q10 -41 40 -70q29 -29 70 -40q16 -5 40 -5q23 0 39 5
q41 11 70 40q30 29 40 70q5 16 5 40q0 23 -5 39q-11 41 -40 70q-29 30 -70 40q-16 5 -40 5q-23 0 -39 -5q-41 -11 -70 -40t-40 -70q-5 -16 -5 -39q0 -24 5 -40zM107 238v13q0 4 4 8q3 3 8 3h43q5 0 8 3t3 8v43q0 5 4 9q3 3 7 3h13q5 0 8 -3t3 -9v-43q0 -5 3 -8t8 -3h44
q5 0 8 -3t3 -8v-13q0 -5 -3 -8t-8 -3h-44q-5 0 -8 -3t-3 -8v-43q0 -5 -3 -8q-4 -4 -8 -4h-13q-3 0 -7 4t-4 8v43q0 5 -3 8t-8 3h-43q-5 0 -8 3q-4 4 -4 8z" />
    <glyph glyph-name="uniF103" unicode="&#xf103;" horiz-adv-x="481"
d="M0 80v291q0 17 12 29t29 12h337q14 0 26 -12q11 -11 11 -29v-10v-69l66 -67l-66 -66v-79q0 -18 -11 -29q-12 -12 -26 -12h-337q-17 0 -29 12t-12 29zM120 216q0 -3 3 -6t5 -3h47q6 0 10 -4t4 -8v-46q0 -14 14 -14h14q2 0 6 4q3 3 3 10v46q0 3 3 8q3 4 10 4h47q7 0 10 3
t3 6v18q0 3 -3 6t-10 3h-47q-7 0 -10 4t-3 8v46q0 7 -3 11q-2 3 -6 3h-14q-14 0 -14 -14v-46q0 -4 -4 -8t-10 -4h-47q-2 0 -5 -3t-3 -6v-18z" />
    <glyph glyph-name="uniF104" unicode="&#xf104;"
d="M361 320q20 0 34.5 -16.5t14.5 -34.5v-187q0 -19 -14 -31.5t-35 -12.5h-307q-20 0 -37 17t-17 35v186q0 19 15 31.5t36 12.5h51q3 6 8 14.5t20 22.5t29 14h100q12 0 25 -12.5t20 -25.5l8 -13h49zM387 90v186q-1 4 -3 7t-4.5 4.5l-5 3t-4.5 2l-4 1l-2 0.5h-54
q-13 0 -25.5 26t-25.5 26h-105q-14 0 -26.5 -26t-25.5 -26h-51q-18 0 -25 -18v-186q4 -14 25 -26h310q16 0 26 26zM205 269q33 0 55 -22t22 -55t-22 -55t-55 -22t-55 22t-22 55t22 55t55 22zM205 136q23 0 39.5 16.5t16.5 39.5t-16.5 39.5t-39.5 16.5t-40 -16.5t-17 -39.5
t17 -39.5t40 -16.5z" />
    <glyph glyph-name="uniF105" unicode="&#xf105;" horiz-adv-x="187"
d="M60 296l9 -9l-52 -51l51 -52l-8 -8l-60 60zM118 287l9 9l60 -60l-60 -60l-9 8l52 52z" />
    <glyph glyph-name="uniF106" unicode="&#xf106;" horiz-adv-x="207"
d="M183 153h-159q-10 0 -17 6.5t-7 16.5v100q0 10 7 17t17 7h36l1 2q8 22 12 22h65q4 0 13 -22q0 -1 1 -2h31q10 0 17 -7t7 -17v-100q0 -10 -7 -16.5t-17 -6.5zM68 287h-42q-14 0 -14 -14v-94q0 -14 14 -14h154q14 0 14 14v94q0 14 -14 14h-36l-1 3q-1 1 -1 2.5t-1 2.5
q-5 14 -7 16h-57zM103 189q-18 0 -30 12.5t-12 30.5t12 30.5t30 12.5t30.5 -12.5t12.5 -30.5t-12.5 -30.5t-30.5 -12.5zM103 264q-13 0 -22 -9.5t-9 -22.5t9 -22.5t22 -9.5t22.5 9.5t9.5 22.5t-9.5 22.5t-22.5 9.5z" />
    <glyph glyph-name="uniF107" unicode="&#xf107;" horiz-adv-x="207"
d="M49 244h30q6 0 6 -6t-6 -6h-30h-9h-10h-24q-6 0 -6 6t6 6h24h10h9zM171 244h30q6 0 6 -6t-6 -6h-30h-9h-10h-24q-6 0 -6 6t6 6h24h10h9z" />
    <glyph glyph-name="uniF108" unicode="&#xf108;" horiz-adv-x="183"
d="M183 244v-12h-85v-85h-13v85h-85v12h85v86h13v-86h85z" />
    <glyph glyph-name="uniF109" unicode="&#xf109;" horiz-adv-x="116"
d="M112 248q4 -4 4 -10.5t-4 -9.5l-99 -66q-5 -3 -9 0t-4 8v136q0 5 4 8t9 0zM99 233q2 1 2 5t-2 5l-81 53q-6 4 -6 -2v-112q0 -6 6 -2z" />
    <glyph glyph-name="uniF10A" unicode="&#xf10a;" horiz-adv-x="404"
d="M87 187v10h164v-10h-164zM338 66v131h11v-131q0 -11 -8 -19.5t-19 -8.5h-295q-11 0 -19 8.5t-8 19.5v212q0 11 8 19t19 8h214v-11h-214q-7 0 -12 -4.5t-5 -11.5v-212q0 -7 5 -12t12 -5h294q7 0 12 5t5 12zM348 305h56v-11h-56v-61h-10v61h-62v11h62v56h10v-56zM87 136v10
h164v-10h-164z" />
    <glyph glyph-name="uniF10B" unicode="&#xf10b;" horiz-adv-x="465"
d="M0 69v193q0 14 6 21t15 7h30v-51h-13v-128q0 -15 8 -24q9 -10 20 -10h273q0 -12 -9 -26q-8 -13 -20 -13h-282q-12 0 -20 9q-8 10 -8 22zM64 136v215q0 14 8 22q9 9 20 9h163v-47h-145v-187h245v92h46v-107q0 -13 -8 -21q-9 -9 -21 -9h-280q-14 0 -21 9q-7 8 -7 24z
M290 336v46h65v63h45v-63h65v-46h-65v-60h-45v60h-65z" />
    <glyph glyph-name="uniF10C" unicode="&#xf10c;" horiz-adv-x="299"
d="M0 164v50v1q0 5 4 9t9 4h97v96q0 6 4 10t10 4h50q5 0 10 -5q4 -4 4 -10v-95h97q6 0 10 -4t4 -9v-1v-50q0 -5 -5 -10q-4 -4 -10 -4h-96v-97q0 -6 -4 -10t-11 -4h-49h-1q-5 0 -9 3q-4 4 -4 10v98h-96q-6 0 -10 4t-4 10z" />
    <glyph glyph-name="uniF10D" unicode="&#xf10d;" horiz-adv-x="388"
d="M95 280v26h198v-26h-198zM95 78v26h198v-26h-198zM0 179v26h388v-26h-388z" />
    <glyph glyph-name="uniF10E" unicode="&#xf10e;"
d="M77 269v51h256v-51h-256zM77 64v51h256v-51h-256zM0 166v52h410v-52h-410z" />
    <glyph glyph-name="uniF10F" unicode="&#xf10f;" horiz-adv-x="340"
d="M0 78v26h224v-26h-224zM0 179v26h340v-26h-340zM0 280v26h224v-26h-224z" />
    <glyph glyph-name="uniF110" unicode="&#xf110;"
d="M0 64v51h282v-51h-282zM0 166v52h410v-52h-410zM0 269v51h282v-51h-282z" />
    <glyph glyph-name="uniF111" unicode="&#xf111;" horiz-adv-x="315"
d="M24 237l-24 -21l158 -175l157 173l-24 22l-133 -147z" />
    <glyph glyph-name="uniF112" unicode="&#xf112;" horiz-adv-x="191"
d="M170 -8l-170 170l170 170l21 -19l-151 -151l151 -152z" />
    <glyph glyph-name="uniF113" unicode="&#xf113;" horiz-adv-x="169"
d="M84 289q33 0 56.5 -23t23.5 -56t-23.5 -56t-56.5 -23t-56 23t-23 56t23 56t56 23zM84 184l36 36l-3 4l-33 -33l-32 32l-3 -3zM84 294q35 0 60 -24.5t25 -59.5t-25 -60t-60 -25t-59.5 25t-24.5 60t24.5 59.5t59.5 24.5zM84 131q33 0 56.5 23t23.5 56t-23.5 56t-56.5 23
t-56 -23t-23 -56t23 -56t56 -23zM84 191l33 33l3 -4l-36 -36l-35 36l3 3z" />
    <glyph glyph-name="uniF114" unicode="&#xf114;" horiz-adv-x="191"
d="M19 332l172 -170l-172 -170l-19 18l151 152l-151 151z" />
    <glyph glyph-name="uniF115" unicode="&#xf115;" horiz-adv-x="340"
d="M0 136l170 172l170 -172l-19 -18l-151 151l-151 -151z" />
    <glyph glyph-name="uniF116" unicode="&#xf116;" horiz-adv-x="234"
d="M137 203l-72 59h-65v76h65l72 52v-187zM174 239l-10 7q17 23 17 47q0 11 -4.5 24t-8.5 21l-4 8l11 6q1 -1 5 -9t8.5 -22.5t4.5 -27.5q0 -12 -5 -26t-8.5 -20t-5.5 -8zM205 205l-8 9q24 26 24 75q0 22 -6.5 43.5t-12.5 32.5l-6 11l10 7l2 -3q1 -2 3 -5t4.5 -8.5t5 -11.5
t5 -13.5t4.5 -15.5t3 -17.5t1 -19.5q0 -55 -29 -84z" />
    <glyph glyph-name="uniF117" unicode="&#xf117;" horiz-adv-x="234"
d="M137 203l-72 59h-65v76h65l72 52v-187zM12 274h57l55 -45v137l-55 -40h-57v-52zM174 239l-10 7q17 23 17 47q0 11 -4.5 24t-8.5 21l-4 8l11 6q1 -1 5 -9t8.5 -22.5t4.5 -27.5q0 -12 -5 -26t-8.5 -20t-5.5 -8zM205 205l-8 9q24 26 24 75q0 22 -6.5 43.5t-12.5 32.5l-6 11
l10 7l2 -3q1 -2 3 -5t4.5 -8.5t5 -11.5t5 -13.5t4.5 -15.5t3 -17.5t1 -19.5q0 -55 -29 -84z" />
    <glyph glyph-name="uniF118" unicode="&#xf118;" horiz-adv-x="193"
d="M137 203l-72 59h-65v76h65l72 52v-187zM12 274h57l55 -45v137l-55 -40h-57v-52zM174 239l-10 7q17 23 17 47q0 11 -4.5 24t-8.5 21l-4 8l11 6q1 -1 5 -9t8.5 -22.5t4.5 -27.5q0 -12 -5 -26t-8.5 -20t-5.5 -8z" />
    <glyph glyph-name="uniF119" unicode="&#xf119;" horiz-adv-x="392"
d="M0 58l1 3q2 7 11 33q6 18 11 27l2 5l3 5l3 4l4 5l5 3l6 4l9 2q6 2 37 7l40 8q1 0 1.5 1t1.5 1q3 4 8 14q4 9 4 20q-4 4 -8 7q-6 5 -9 9q-1 1 -5 14v1v-1l-1 1v2q0 3 -1 9.5t-2 9.5q-1 4 -1.5 12.5t-0.5 13.5q0 3 -0.5 9.5t-0.5 9.5q0 2 0.5 6t0.5 6q0 10 4 32q3 14 10 29
q5 10 19 22q11 10 29 13q12 2 14 2h2q2 0 14 -2q17 -4 24 -9q12 -9 17 -16q9 -13 12 -22q4 -12 6 -24q3 -12 3 -25v-17v-8q0 -7 -2 -23q0 -3 -0.5 -9.5t-1.5 -8.5t-1.5 -6.5t-0.5 -6.5q-4 -13 -5 -14q-3 -4 -9 -9q-4 -3 -8 -7q0 -10 4 -19q5 -12 8 -15q1 -1 3 -1l40 -9
q31 -5 37 -7q4 -1 10 -3q1 0 2.5 -1t2.5 -2t2 -1q2 -1 5 -4l3 -3l1 -2l1 -2l2 -4l3 -5q4 -7 11 -28q4 -12 10 -32l2 -4q-1 -2 -3 -4q-1 -1 -3 -2l-2 -2l-5 -5q-2 -2 -6 -4q-2 -1 -5 -1h-5q-8 -1 -94 -1h-73h-1h-73q-85 0 -93 1h-5q-4 0 -7 2q-6 4 -7 5q-4 4 -6 7zM125 230
v-2v2zM267 228zM267 228v1v-1zM267 229v1q1 0 1 1v2z" />
    <glyph glyph-name="uniF11A" unicode="&#xf11a;" horiz-adv-x="359"
d="M95 38q-41 0 -68 30t-27 73q0 100 140 188l28 -28q-44 -27 -64 -52t-20 -57q0 -27 21 -46t42 -28t21 -10q0 -26 -21 -48t-52 -22zM286 38q-41 0 -68 30t-27 73q0 101 139 188l28 -28q-44 -28 -63.5 -53t-19.5 -58q0 -27 20.5 -46t41.5 -28t21 -10q2 -25 -18.5 -46.5
t-53.5 -21.5z" />
    <glyph glyph-name="uniF11B" unicode="&#xf11b;" horiz-adv-x="256"
d="M123 38h-123l2 19l17 2q16 3 16 10v232q0 8 -19 10h-14l-2 18h130q117 0 117 -65q0 -29 -22.5 -47.5t-56.5 -24.5v-2q88 -11 88 -75q0 -77 -133 -77zM116 308h-21v-114h26q27 0 42.5 16t15.5 40q0 27 -16 42.5t-47 15.5zM112 176h-17v-117l26 -4h5q27 0 45 15.5t18 42.5
q0 32 -21 47.5t-56 15.5z" />
    <glyph glyph-name="uniF11C" unicode="&#xf11c;" horiz-adv-x="323"
d="M7 122q-6 0 -6 6v180q0 7 6 7h137q11 0 18 -10q10 10 17 10h137q6 0 6 -7v-179q0 -7 -6 -7h-137q-5 0 -10 -9q-1 -4 -7 -4q-5 0 -8 4q-5 9 -10 9h-137zM168 289v-158q5 4 11 4h131v167h-130q-3 0 -7.5 -4.5t-4.5 -8.5zM14 302v-167h130q6 0 11 -4v158q0 4 -4 8.5t-7 4.5
h-130zM322 89q-1 -7 0 -7h-128q-11 0 -20 -9q-4 -4 -11.5 -4t-10.5 4q-2 3 -10.5 6.5t-11.5 3.5h-128q-1 0 -1 8q0 7 6 7h127q19 0 28 -12q10 10 32 10h122q6 0 6 -7z" />
    <glyph glyph-name="uniF11D" unicode="&#xf11d;" horiz-adv-x="307"
d="M0 96v96q0 24 17 41t41 17h38q4 0 10 14q6 15 9 15h77q4 0 10 -15q6 -14 10 -14h37q24 0 41 -17t17 -41v-96q0 -24 -17 -41t-41 -17h-191q-24 0 -41 17t-17 41zM87 144q0 -28 19 -47q20 -20 48 -20q27 0 47 20t20 47q0 28 -20 48t-47 20q-28 0 -48 -20q-19 -19 -19 -48z
M115 144q0 15 11 28q10 11 28 11q17 0 27 -11q11 -13 11 -28q0 -14 -11 -27q-11 -12 -27 -12q-18 0 -28 12q-11 13 -11 27z" />
    <glyph glyph-name="uniF11E" unicode="&#xf11e;" horiz-adv-x="323"
d="M0 156v-1q0 7 4 11l34 38q3 4 9 4t10 -4l53 -61q3 -4 9 -4q7 0 10 4l139 168q3 4 9 4t9 -4l34 -37q3 -5 3 -11q0 -5 -3 -10l-171 -204q-2 -3 -10 -7q-6 -3 -12 -3h-16q-6 0 -12 3q-8 4 -10 7l-85 96q-4 4 -4 11z" />
    <glyph glyph-name="uniF11F" unicode="&#xf11f;" horiz-adv-x="307"
d="M5 153v-1q-5 16 -5 40q0 23 5 39q11 40 40 69t69 40l39 5q24 0 40 -5q40 -11 69 -40t40 -69q5 -16 5 -39t-5 -39q-11 -40 -40 -69q-31 -31 -69 -41l-40 -5q-23 0 -39 5q-38 10 -69 41q-29 29 -40 69zM34 160h-1q10 -34 32 -55q22 -22 56 -32q18 -5 32 -5t32 5
q34 10 56 32q36 36 36 87t-36 87q-37 37 -88 37q-50 0 -87 -37q-23 -23 -32 -55q-5 -18 -5 -32t5 -32zM82 185q0 3 2 5l16 17q2 2 4 2q3 0 5 -2l28 -28l66 65q2 2 4 2t4 -2l15 -15q2 -2 2 -4q0 -3 -2 -5l-87 -86q-2 -2 -4 -2t-4 2l-47 47q-2 2 -2 4z" />
    <glyph glyph-name="uniF120" unicode="&#xf120;" horiz-adv-x="402"
d="M0 30v193q0 13 6 21q6 7 16 7h29v-51h-13v-128q0 -15 8 -24q9 -10 20 -10h273q0 -12 -9 -26q-8 -13 -20 -13h-282q-12 0 -20 9q-8 10 -8 22zM64 97v215q0 14 8 22q9 9 20 9h281q13 0 21 -9q8 -10 8 -24v-214q0 -13 -9 -22t-20 -9h-281q-14 0 -21 8t-7 25v-1zM110 111h246
v185h-246v-185z" />
    <glyph glyph-name="uniF121" unicode="&#xf121;" horiz-adv-x="403"
d="M0 36v268q0 14 12 35q16 16 28 16h321q16 0 28 -16q14 -19 14 -35v-268q0 -16 -14 -35q-12 -16 -28 -16h-321q-16 0 -28 16t-12 35zM54 38h295v263h-295v-263zM86 111v51h121v-51h-121zM86 197v51h210v-51h-210z" />
    <glyph glyph-name="uniF122" unicode="&#xf122;" horiz-adv-x="394"
d="M0 48v19q0 4 3 7q2 2 6 2h376q4 0 6 -2q3 -3 3 -7v-19q0 -4 -3 -7t-6 -3h-376q-3 0 -6 3t-3 7zM0 252v48h161v-49q-19 0 -29 3v2q-1 3 -2 8t-2 11h-28v-129q18 0 25 -2q2 -6 2 -12q0 -9 -1 -12h-92q1 13 6 22q9 3 21 4v129h-28l-3 -20q-9 -3 -30 -3zM210 133v19q0 4 2 6
q4 4 7 4h166q2 0 6 -4q3 -3 3 -6v-19q0 -4 -3 -7q-2 -2 -6 -2h-166q-5 0 -7 2t-2 7zM210 203v19q0 4 2 6q3 3 7 3h166q3 0 6 -3t3 -6v-19q0 -4 -3 -7q-2 -2 -6 -2h-166q-5 0 -7 2t-2 7zM210 272v19q0 4 2 6q3 3 7 3h166q3 0 6 -3t3 -6v-19q0 -4 -3 -7q-2 -2 -6 -2h-166
q-5 0 -7 2t-2 7z" />
    <glyph glyph-name="uniF123" unicode="&#xf123;" horiz-adv-x="430"
d="M0 68v180l87 -70l-60 -118l81 99l60 -39l2 -3q1 -2 6 -7q1 -1 10 -7q7 -5 13 -7q5 -2 15 -2l3 -1q4 0 7 1t11 3q6 1 14 8q10 8 14 13l60 42l81 -100l-58 119l84 69v-180v-3q0 -1 -1.5 -4t-1.5 -4t-5 -8q-4 -5 -9 -8q-6 -3 -14 -3h-370h-3q-1 0 -7 2q-3 1 -9 5q-4 3 -7 9
t-3 14zM1 277v3q0 3 1 7q1 5 4 9q4 5 9 8q6 3 14 3h371h3q1 0 7 -2t9 -4t7 -10t4 -14l-184 -140l-3 -3l-8 -6q-3 -3 -13 -5l-2 -1h-2q-6 0 -13 3q-9 3 -20 12z" />
    <glyph glyph-name="uniF124" unicode="&#xf124;" horiz-adv-x="447"
d="M165 259q8 -11 0 -25l-74 -77l74 -77q12 -9 0 -21l-23 -23q-12 -12 -23 0l-119 123l121 124q9 12 21 0zM330 283l117 -121l-119 -124q-9 -12 -21 0l-23 24q-12 12 0 23l74 77l-74 77q-8 8 0 20l23 24q11 11 23 0z" />
    <glyph glyph-name="uniF125" unicode="&#xf125;" horiz-adv-x="357"
d="M0 47v145q0 5 2 7t7 2v0q3 0 5 -2l48 -48l58 59q3 3 8 3q3 0 6 -3l36 -36q2 -2 2 -7t-2 -7l-58 -58l48 -49q2 -2 2 -5v-1q0 -4 -2 -6t-7 -2h-144q-4 0 -6 2q-3 3 -3 6zM185 269q0 5 2 7l58 59l-48 48l-2 6q0 4 2 6q3 3 6 3h145q3 0 6 -3t3 -6v-145q0 -3 -3 -6t-6 -3
q-3 1 -5 3l-48 47l-58 -58q-3 -3 -7 -3t-7 3l-36 35q-2 2 -2 7z" />
    <glyph glyph-name="uniF126" unicode="&#xf126;" horiz-adv-x="504"
d="M0 -61v504h504v-504h-504zM220 155v21h-16v72h-31l-45 -73v-20h51v-23h25v23h16zM152 176l27 44v-44h-27zM321 191q0 59 -46 59q-47 0 -47 -60t46 -60q47 0 47 61zM291 190q0 -40 -17 -40t-17 40t17 40t17 -40zM426 191q0 59 -47 59q-46 0 -46 -60t46 -60q47 0 47 61z
M396 190q0 -40 -17 -40t-17 40t17 40t17 -40z" />
    <glyph glyph-name="uniF127" unicode="&#xf127;" horiz-adv-x="504"
d="M0 -61v504h504v-504h-504zM263 155v21h-17v72h-31l-45 -73v-20h51v-23h25v23h17zM194 176l27 44v-44h-27zM363 191q0 59 -46 59q-47 0 -47 -60t47 -60q46 0 46 61zM334 190q0 -40 -17 -40t-17 40t17 40t17 -40zM422 132v116h-18l-34 -11v-21h1l23 8v-92h28z" />
    <glyph glyph-name="uniF128" unicode="&#xf128;" horiz-adv-x="504"
d="M0 -61v504h504v-504h-504zM239 155v21h-16v72h-31l-45 -73v-20h51v-23h25v23h16zM171 176l27 44v-44h-27zM340 191q0 59 -46 59q-47 0 -47 -60t46 -60q47 0 47 61zM311 190q0 -40 -17 -40t-17 40t17 40t17 -40zM361 181h13q13 0 18 -3q6 -3 6 -12q0 -14 -21 -14l-26 4h-1
v-21q11 -4 28 -4q23 0 36 9t13 25q0 25 -25 28q23 5 23 27q0 29 -44 29l-30 -4v-21h2q13 4 25 4q18 0 18 -12q0 -8 -6 -11q-5 -3 -16 -3h-13v-21z" />
    <glyph glyph-name="uniF129" unicode="&#xf129;" horiz-adv-x="504"
d="M0 -61v504h504v-504h-504zM228 155v21h-16v72h-32l-45 -73v-20h52v-23h25v23h16zM160 176l27 44v-44h-27zM329 191q0 59 -46 59q-47 0 -47 -60t46 -60q47 0 47 61zM299 190q0 -40 -17 -40t-17 40t17 40t17 -40zM429 155v21h-16v72h-32l-45 -73v-20h51v-23h26v23h16z
M361 176l26 44v-44h-26z" />
    <glyph glyph-name="uniF12A" unicode="&#xf12a;" horiz-adv-x="504"
d="M0 -61v504h504v-504h-504zM267 155v21h-17v72h-31l-45 -73v-20h51v-23h25v23h17zM198 176l27 44v-44h-27zM317 132v116h-18l-34 -11v-21h1l24 8v-92h27zM426 191q0 59 -47 59q-46 0 -46 -60t46 -60q47 0 47 61zM396 190q0 -40 -17 -40t-17 40t17 40t17 -40z" />
    <glyph glyph-name="uniF12B" unicode="&#xf12b;" horiz-adv-x="504"
d="M0 -61v504h504v-504h-504zM295 155v21h-16v72h-32l-45 -73v-20h51v-23h26v23h16zM227 176l26 44v-44h-26zM373 226v22h-66l-3 -66h1q13 1 21 1q25 0 25 -15q0 -16 -20 -16l-28 5h-2v-22q13 -4 30 -4q48 0 48 38q0 35 -41 35h-10l1 22h44zM432 132v116h-18l-34 -11v-21h1
l23 8v-92h28z" />
    <glyph glyph-name="uniF12C" unicode="&#xf12c;" horiz-adv-x="504"
d="M0 -61v504h504v-504h-504zM223 226v22h-66l-3 -66h1q13 1 21 1q25 0 25 -15q0 -16 -20 -16l-28 5h-1v-22q12 -4 29 -4q48 0 48 38q0 35 -40 35h-11l1 22h44zM331 191q0 59 -46 59q-47 0 -47 -60t46 -60q47 0 47 61zM301 190q0 -40 -17 -40t-17 40t17 40t17 -40zM436 191
q0 59 -47 59q-46 0 -46 -60t46 -60q47 0 47 61zM406 190q0 -40 -17 -40t-17 40t17 40t17 -40z" />
    <glyph glyph-name="uniF12D" unicode="&#xf12d;" horiz-adv-x="504"
d="M0 -61v504h504v-504h-504zM126 185q0 -46 13 -76q13 -31 32 -31h161q19 0 32 31q14 33 14 76t-14 76q-13 31 -32 31h-161q-19 0 -32 -31q-13 -30 -13 -76zM197 184v44q0 3 4 7q3 3 7 3t7 -3t3 -7v-44q0 -5 -3 -8t-7 -3t-7 3q-4 4 -4 8zM231 107v13q0 10 6 16t15 6
q10 0 16 -6t6 -16v-13h-43zM285 184v44q0 4 3 7t7 3q5 0 8 -3t3 -7v-44q0 -5 -3 -8t-8 -3q-4 0 -7 3t-3 8z" />
    <glyph glyph-name="uniF12E" unicode="&#xf12e;" horiz-adv-x="369"
d="M0 60v327q0 8 6 14t15 6h327q9 0 15 -6t6 -14v-327q0 -8 -7 -15t-14 -7h-103v145h44v60h-44v15q0 3 0.5 6t0.5 4q0 2 2 8q2 5 7 7q3 1 13 1h19v52q-2 1 -5 1q-1 0 -5 1t-6 1h-15q-14 0 -30 -2q-10 -1 -22 -8q-10 -6 -14 -17q-5 -13 -5 -29v-40h-45v-60h45v-144h-164
q-9 0 -15 6t-6 15z" />
    <glyph glyph-name="uniF12F" unicode="&#xf12f;" horiz-adv-x="297"
d="M0 -31v430h37v-17q2 -2 4 -3l3 -1q2 -2 5 -3.5t6 -2.5q13 -5 23 -8q23 -6 31 -7q20 -3 41 -3q38 0 70 -4q30 -4 57 -10l20 -5l-57 -93l57 -115q-2 1 -5.5 1.5t-9 1.5t-8.5 2q-15 3 -52 9q-32 5 -72 5q-22 0 -41 3q-23 3 -32 7q-2 1 -10.5 3.5t-11.5 4.5l-14 7l-4 3v-205
h-37z" />
    <glyph glyph-name="uniF130" unicode="&#xf130;" horiz-adv-x="307"
d="M159 285v-80h77v-10h-77v-77h-11v77h-78v10h78v80h11zM154 356q64 0 108.5 -45t44.5 -109t-44.5 -108.5t-108.5 -44.5t-109 44.5t-45 108.5t45 109t109 45zM154 59q59 0 101 42t42 101t-42 101.5t-101 42.5t-101.5 -42.5t-42.5 -101.5t42.5 -101t101.5 -42z" />
    <glyph glyph-name="uniF131" unicode="&#xf131;" horiz-adv-x="307"
d="M154 346q64 0 108.5 -45t44.5 -109t-44.5 -109t-108.5 -45t-109 45t-45 109t45 109t109 45zM133 136l106 106l-7 7l-99 -98l-55 55l-7 -7z" />
    <glyph glyph-name="uniF132" unicode="&#xf132;" horiz-adv-x="398"
d="M19 363q0 27 0.5 27.5t27.5 0.5h304q27 0 27.5 -0.5t0.5 -27.5v-266q0 -27 -0.5 -27.5t-27.5 -0.5h-304q-27 0 -27.5 0.5t-0.5 27.5v266zM0 363v-266q0 -30 8.5 -38.5t38.5 -8.5h304q30 0 38.5 8.5t8.5 38.5v266q0 30 -8.5 38.5t-38.5 8.5h-304q-30 0 -38.5 -8.5
t-8.5 -38.5zM59 109q-2 2 -2 6v79q0 7 9 7q10 0 10 -7v-68h68q8 0 8 -10q0 -9 -8 -9h-79q-5 0 -6 2zM339 350q2 -2 2 -5v-79q0 -8 -9 -8q-10 0 -10 8v68h-68q-7 0 -7 10q0 9 7 9h79q5 0 6 -3z" />
    <glyph glyph-name="uniF133" unicode="&#xf133;"
d="M384 371q11 0 18.5 -7t7.5 -18v-282q0 -11 -7.5 -18.5t-18.5 -7.5h-358q-11 0 -18.5 7.5t-7.5 18.5v282q0 11 7.5 18t18.5 7h358zM230 64v128h-204v-128h204zM384 64v128h-128v-128h128zM384 218v128h-358v-128h358z" />
    <glyph glyph-name="uniF134" unicode="&#xf134;" horiz-adv-x="512"
d="M0 116l1 3q0 1 3 10l5 15q6 16 9 21l2 4q2 4 2 5l1 2l2 2l4 4q1 1 3 1.5t3 0.5q2 1 8 3q1 0 2.5 0.5t4.5 1t6 0.5q12 2 16 3q12 3 30 6l2 2q4 4 7 11t3 15q-3 3 -6 5l-7 7q-2 2 -4 10l-1 1v1q0 2 -1 7t-1 7t-0.5 5t-1 7t-0.5 8v15v10q0 7 4 25q3 14 7 23t15 18q8 7 23 10
q3 1 11 1h1q8 0 11 -1l7 -2q-17 -29 -17 -75q0 -28 6 -64q1 -7 5 -13q3 -5 9 -9l8 -6q0 -12 -4 -20q-5 -10 -8 -13q-2 -2 -3 -2l-39 -8q-16 -2 -36 -7l-9 -3q-3 -1 -7 -3l-5 -5l-3 -3l-1 -2l-1 -2l-2 -4l-3 -5q-2 -3 -14 -38q-2 0 -5.5 0.5t-5.5 0.5h-10h-4h-3q-2 0 -4 1
q-1 1 -2.5 2t-2.5 1l-4 4l-2 1q-2 1 -2 2zM67 71l1 4q16 50 21 58l1 1l2 4q1 3 3 5l1 2l3 3l5 5q4 2 7 3l3 1q4 1 6 2q20 5 36 7l38 8l3 2q4 4 8 13t4 20q-3 3 -7 6q-6 5 -9 9q-5 8 -6 13v1v1v1q-1 3 -2 9.5t-1 9.5q-1 3 -1.5 12t-0.5 13q0 3 -0.5 9t-0.5 8q0 3 0.5 7t0.5 6
q2 21 4 30q3 14 10 29q5 11 19 21t28 13q10 2 14 2h1q2 0 14 -2q13 -2 27 -13q14 -10 19 -21q8 -15 10 -28q4 -22 4 -31q0 -2 0.5 -6t0.5 -7q0 -2 -0.5 -8t-0.5 -9q0 -4 -0.5 -13t-1.5 -12q0 -3 -1 -9.5t-2 -9.5v-2l-1 -2l1 1l-1 -1v-1q-1 -6 -5 -12q-2 -3 -9 -8
q-1 -1 -3 -2.5t-3 -2.5l-2 -1q0 -12 4 -20t9 -13l2 -2l38 -8q14 -2 37 -7q2 0 3.5 -0.5t3 -1.5t2.5 -1q3 -1 7 -3l5 -5l3 -3l1 -2q2 -2 3 -5l2 -4l1 -1q11 -25 21 -58l1 -4l-4 -4l-6 -6q-3 -3 -6 -5q-5 -3 -8 -3h-3q-9 -1 -92 -1h-70h-2h-70q-84 0 -92 1h-3q-3 0 -7 3
q-6 4 -7 5l-6 6zM96 252v-2v2zM187 236h1h-1zM188 235v1v-1zM327 237v2v-2zM330 216l8 6q6 4 9 9q4 6 5 13q6 36 6 64q0 46 -17 75l7 2q3 1 12 1h1q7 0 10 -1q15 -3 23 -10q11 -9 15 -18t7 -23q4 -18 4 -25v-9q0 -2 -0.5 -7.5t-0.5 -8.5t-0.5 -10t-1.5 -10q-1 -2 -1 -7
t-1 -7v-1v-1q-2 -8 -4 -10l-7 -7q-3 -2 -6 -5q0 -8 3 -15t7 -11l2 -2q18 -3 30 -6q4 -1 16 -3q3 0 6 -0.5t4.5 -1t2.5 -0.5q6 -2 8 -3q1 0 3 -0.5t3 -1.5l4 -4l2 -2l1 -2q0 -1 2 -5l2 -4q3 -5 9 -21l5 -15t3 -10l1 -3q-1 -2 -2 -3t-4 -3l-4 -4q-1 0 -2.5 -1t-2.5 -2
q-2 -1 -4 -1h-3h-4h-10q-2 0 -5.5 -0.5t-5.5 -0.5q-12 35 -14 38l-3 5l-3 6l-4 5l-5 5l-7 3l-9 3q-1 0 -37 7l-38 8q-1 0 -3 2q-4 4 -8 13t-4 20zM415 250l1 2z" />
    <glyph glyph-name="uniF135" unicode="&#xf135;" horiz-adv-x="493"
d="M189 38l2 19l16 2q16 2 16 10v107h-128v-110q0 -7 17 -7l16 -2l2 -19h-130l2 19l17 2q16 3 16 10v232q0 8 -19 10h-14l-2 18h130l-2 -18l-16 -3q-17 0 -17 -9v-102h128v104q0 7 -16 7l-16 3l-2 18h130l-2 -18l-17 -3q-16 -3 -16 -9v-233q0 -7 19 -9l16 -2l2 -19h-132v2z
M363 38v19l33 5q9 3 9 9v161l-44 4v14l97 28v-207q0 -6 10 -9l25 -5v-19h-130z" />
    <glyph glyph-name="uniF136" unicode="&#xf136;" horiz-adv-x="521"
d="M189 38l2 19l16 2q16 2 16 10v107h-128v-110q0 -7 17 -7l16 -2l2 -19h-130l2 19l17 2q16 3 16 10v232q0 8 -19 10h-14l-2 18h130l-2 -18l-16 -3q-17 0 -17 -9v-102h128v104q0 7 -18 7l-14 3l-2 18h130l-2 -18l-17 -3q-16 -3 -16 -9v-233q0 -7 19 -9l16 -2l2 -19h-132v2z
M510 38h-152l-2 24q10 11 30 30.5t29 29t20.5 24t16 27t4.5 26.5q0 19 -11 29.5t-28 10.5q-25 0 -56 -26l-5 9q33 54 84 54q32 0 51 -18.5t19 -46.5q0 -27 -22.5 -52t-76.5 -69l-15 -12v-2h25q49 0 59.5 1t15.5 8l9 16h16z" />
    <glyph glyph-name="uniF137" unicode="&#xf137;" horiz-adv-x="514"
d="M189 38l2 19l16 2q16 2 16 10v107h-128v-110q0 -7 17 -7l16 -2l2 -19h-130l2 19l17 2q16 3 16 10v232q0 8 -19 10h-14l-2 18h130l-2 -18l-16 -3q-17 0 -17 -9v-102h128v104q0 7 -18 7l-14 3l-2 18h130l-2 -18l-17 -3q-16 -3 -16 -9v-233q0 -7 19 -9l16 -2l2 -19h-132v2z
M417 29q-26 0 -43.5 10t-17.5 27q0 24 23 24q15 0 23 -13t8 -29h9q18 0 30 14.5t12 36.5q0 20 -10.5 29.5t-26.5 9.5q-13 0 -26 -7l-7 14q4 3 14.5 10t14.5 10t11.5 9.5t11 10.5t6 10.5t2.5 12.5q0 31 -34 31q-27 0 -56 -24l-5 12q15 20 40 33t51 13q25 0 42.5 -13.5
t17.5 -32.5q0 -12 -8.5 -23.5t-15 -17t-25.5 -16.5t-23 -13v-2q14 4 23 4q23 0 39.5 -13.5t16.5 -37.5q2 -31 -27 -55t-70 -24z" />
    <glyph glyph-name="uniF138" unicode="&#xf138;" horiz-adv-x="297"
d="M148 59l-121 122q-27 29 -27 62t24 56.5t57 23.5q32 0 67 -38q35 38 68 38q34 0 57.5 -23.5t23.5 -56.5q0 -35 -27 -62zM81 312q-29 0 -50 -20.5t-21 -48.5q0 -29 24 -55l114 -114l115 114q24 24 24 55q0 28 -21 48.5t-50 20.5q-13 0 -29 -9.5t-25 -18.5t-9 -10l-5 -4
l-3 4q-38 38 -64 38z" />
    <glyph glyph-name="uniF139" unicode="&#xf139;" horiz-adv-x="461"
d="M0 276q0 32 16 60q18 31 44 46q29 17 62 17q17 0 32 -7q19 -9 29 -16q23 -17 25 -19q4 -3 7 -6t5.5 -6t3.5 -4q2 -2 3.5 -4t2.5 -3l6 7q4 4 18 16q16 14 24 19q17 11 30 16q19 7 31 7q32 0 61 -17q28 -16 45 -45q16 -28 16 -61q0 -54 -41 -95l-189 -193l-190 193
q-41 44 -41 95z" />
    <glyph glyph-name="uniF13A" unicode="&#xf13a;" horiz-adv-x="504"
d="M146 444q64 0 106 -47q42 47 106 47q61 0 103.5 -44t42.5 -106q0 -21 -8 -47q-24 -75 -127 -169q-46 -43 -105 -89q-12 -10 -24 0q-3 3 -14.5 12.5t-21 17.5t-10.5 9q-31 26 -59 52q-85 78 -115 139q-20 40 -20 75q0 62 42.5 106t103.5 44zM238 357q-13 22 -38.5 36
t-53.5 14q-45 0 -77 -33t-32 -80q0 -27 16 -58q30 -58 107 -129q23 -22 57 -51l36 -30q65 54 92 79q94 85 116 153q6 18 6 36q0 47 -32 80t-77 33q-55 0 -90 -50q-16 -24 -30 0z" />
    <glyph glyph-name="uniF13B" unicode="&#xf13b;" horiz-adv-x="512"
d="M240 411l16 -17q44 54 111 54q60 0 102.5 -43.5t42.5 -105.5q0 -21 -8 -47q-25 -78 -130 -173l-110 -94q-8 -8 -16 0q-3 3 -15 13t-22 18.5t-11 9.5q-59 51 -62 54q-84 78 -118 144q-20 40 -20 75q0 62 42.5 105.5t102.5 43.5q53 0 95 -37zM241 365q-34 54 -96 54
q-48 0 -82 -35t-34 -85q0 -28 17 -62q32 -62 112 -136q22 -21 61 -53q2 -1 37 -31q28 20 98 83q98 89 122 161q7 23 7 38q0 50 -34 85t-82 35q-62 0 -96 -54q-5 -8 -15 -8t-15 8z" />
    <glyph glyph-name="uniF13C" unicode="&#xf13c;" horiz-adv-x="512"
d="M240 411q-42 37 -95 37q-60 0 -102.5 -43.5t-42.5 -105.5q0 -35 20 -75q34 -66 118 -144q3 -3 62 -54q1 -1 11 -9.5t22 -18.5t15 -13q8 -8 16 0l109 93l1 1q105 95 130 173q8 26 8 47q0 62 -42.5 105.5t-102.5 43.5q-67 0 -111 -54z" />
    <glyph glyph-name="uniF13D" unicode="&#xf13d;" horiz-adv-x="352"
d="M162 10l190 343l-128 71l-190 -343l3 -35l-37 -66l110 -22l20 36zM327 346l-179 -322l-31 -16l-16 -30l-73 15l28 49l-4 35l179 322zM84 135l-9 -16l96 -53l9 16z" />
    <glyph glyph-name="uniF13E" unicode="&#xf13e;" horiz-adv-x="339"
d="M201 102l-126 69l138 250l126 -70zM188 78l-35 -63l-34 -14l-18 -34l-101 23l33 59l-6 36l35 63z" />
    <glyph glyph-name="uniF13F" unicode="&#xf13f;" horiz-adv-x="306"
d="M0 104v201q0 4 2 5q4 2 6 2h291q1 0 5 -2q2 -1 2 -5v-201q0 -4 -2 -5q-4 -2 -5 -2h-291q-2 0 -6 2q-2 1 -2 5zM50 46v14q0 3 2 5q3 3 5 3h192q3 0 5 -3q2 -2 2 -5v-14q0 -3 -2 -5t-5 -2h-192q-3 0 -5 2t-2 5z" />
    <glyph glyph-name="uniF140" unicode="&#xf140;" horiz-adv-x="364"
d="M0 46v248q0 3 2 5t5 2h350q3 0 5 -2t2 -5v-248q0 -1 -2 -5q-2 -3 -5 -3h-350q-3 0 -5 3q-2 4 -2 5zM87 104q0 -4 2 -5q4 -2 6 -2h174q3 0 5 2t2 5v14q0 2 -2 6q-1 2 -5 2h-174q-4 0 -6 -2t-2 -6v-14zM87 162q0 -4 2 -5q4 -2 6 -2h174q3 0 5 2t2 5v15q0 1 -2 5q-1 2 -5 2
h-174q-4 0 -6 -2t-2 -5v-15z" />
    <glyph glyph-name="uniF141" unicode="&#xf141;" horiz-adv-x="233"
d="M0 46v15q0 3 2 5t5 2h219q1 0 5 -2q2 -1 2 -5v-15q0 -4 -2 -5q-4 -2 -5 -2h-219q-3 0 -5 2t-2 5zM0 104v131q0 3 2 5t5 2h219q1 0 5 -2q2 -1 2 -5v-131q0 -3 -2 -5q-3 -3 -5 -3h-219q-3 0 -5 3q-2 4 -2 5zM0 279v14q0 1 2 5q2 3 5 3h219q2 0 5 -3q2 -2 2 -5v-14
q0 -4 -2 -5q-4 -2 -5 -2h-219q-3 0 -5 2t-2 5z" />
    <glyph glyph-name="uniF142" unicode="&#xf142;" horiz-adv-x="248"
d="M0 46v14q0 4 2 6t5 2h233q2 0 6 -2q2 -1 2 -6v-14q0 -4 -2 -5l-6 -3h-233q-2 0 -5 3q-2 2 -2 5zM0 104v131q0 1 2 5q2 3 5 3h124q2 0 5 -3t3 -5v-131q0 -4 -3 -5q-4 -2 -5 -2h-124q-3 0 -5 2t-2 5zM0 279v14q0 4 2 6t5 2h233q2 0 6 -2q2 -1 2 -6v-14q0 -3 -2 -5t-6 -2
h-233q-4 0 -5 2q-2 4 -2 5zM160 104v15q0 3 2 5t5 2h73q2 0 6 -2q2 -1 2 -5v-15q0 -4 -2 -5q-4 -2 -6 -2h-73q-3 0 -5 2t-2 5zM160 162v15q0 3 2 5t5 2h73q2 0 6 -2q2 -1 2 -5v-15q0 -3 -2 -4q-4 -2 -6 -2h-73q-3 0 -5 2t-2 4zM160 221v14q0 1 2 5q2 3 5 3h73q3 0 6 -3
q2 -2 2 -5v-14q0 -4 -2 -5q-4 -2 -6 -2h-73q-3 0 -5 2t-2 5z" />
    <glyph glyph-name="uniF143" unicode="&#xf143;" horiz-adv-x="306"
d="M0 104v131q0 4 2 5q4 2 6 2h290q2 0 6 -2q2 -1 2 -5v-131q0 -4 -2 -5q-4 -2 -6 -2h-290q-2 0 -6 2q-2 1 -2 5zM36 46v14q0 4 3 5q1 0 2.5 1.5t2.5 1.5h218q3 0 6 -3q2 -2 2 -5v-14q0 -4 -2 -5q-4 -2 -6 -2h-218q-1 0 -5 2q-3 1 -3 5zM36 279v14q0 3 3 5q1 0 2.5 1.5
t2.5 1.5h218q3 0 6 -3q2 -2 2 -5v-14q0 -4 -2 -5q-4 -2 -6 -2h-218q-3 0 -5 2q-3 3 -3 5z" />
    <glyph glyph-name="uniF144" unicode="&#xf144;" horiz-adv-x="343"
d="M0 104v130q0 2 2 6q1 2 5 2h196q3 0 5 -2q3 -3 3 -6v-130q0 -4 -3 -5q-4 -2 -5 -2h-196q-3 0 -5 2t-2 5zM96 46v15q0 2 2 4t4 2h234q3 0 5 -2q2 -1 2 -4v-15q0 -4 -2 -5q-2 -2 -5 -2h-234q-3 0 -4 2q-2 2 -2 5zM96 278v15q0 3 2 5t4 2h234q1 0 5 -2q2 -1 2 -5v-15
q0 -3 -2 -4q-2 -2 -5 -2h-234q-2 0 -4 2t-2 4zM236 161v15q0 4 2 6q4 2 5 2l93 1q2 0 5 -3q2 -2 2 -6v-14q0 -4 -2 -6t-5 -2h-93q-3 0 -5 2t-2 5zM236 220v14q0 4 2 6t5 2h93q3 0 5 -2q2 -4 2 -6v-14q0 -4 -2 -5q-2 -2 -5 -2h-93q-3 0 -5 2q-2 1 -2 5zM236 104v15q0 4 2 6
q4 2 5 2l93 1q2 0 5 -3q2 -2 2 -6v-14q0 -4 -2 -6t-5 -2h-93q-3 0 -5 2t-2 5z" />
    <glyph glyph-name="uniF145" unicode="&#xf145;" horiz-adv-x="628"
d="M310 94v51h111v-51h-111zM310 185v56h204v-56h-204zM617 336q11 -14 11 -30v-282q0 -16 -11 -27q-12 -12 -26 -12h-116h-105h-116q-14 0 -26 12t-12 27v31l49 49v-66h117h81h116v259h-314v-70l-49 49v30q0 18 12 30t26 12h337q14 0 26 -12zM263 166l-37 -39l-107 -105
l-40 37l79 79h-158v56h158l-79 77l40 40l107 -105z" />
    <glyph glyph-name="uniF146" unicode="&#xf146;" horiz-adv-x="462"
d="M8 142q-8 32 -8 60q0 27 8 59q17 61 60 104q46 46 103 60q32 8 60 8t60 -8q57 -14 103 -60q45 -45 60 -104q8 -32 8 -59q0 -28 -8 -60q-14 -57 -60 -104q-44 -44 -103 -59q-32 -8 -60 -8q-27 0 -59 8q-58 14 -104 59q-45 45 -60 104zM175 203l26 3l-18 -120q0 -8 5 -18
q6 -13 12 -17q13 0 31 3q19 3 28 7q5 10 7 17q3 10 3 18l-27 -3q-1 1 -1 3v4l17 144q-18 4 -24 4q-30 0 -49 -11q-4 -4 -7 -15q-3 -12 -3 -19zM203 319q0 -35 34 -35q14 0 23 9t9 26q0 16 -9 25q-8 8 -23 8t-24 -9q-10 -10 -10 -24z" />
    <glyph glyph-name="uniF147" unicode="&#xf147;" horiz-adv-x="512"
d="M0 231q0 6 4 10l4 5q2 4 8 10q1 1 8 7.5t12 11.5q14 13 30 27q11 9 38 27q23 15 46 26q22 11 51 18q27 7 55 7q37 0 71 -11l-43 -44q-17 4 -36 4q-23 0 -50 -8q-24 -7 -46 -19q-21 -11 -40 -26q-30 -23 -31 -24q-4 -3 -7.5 -6.5t-7.5 -8t-6 -6.5q13 -15 30 -29
q20 -16 42 -30l-35 -35q-4 3 -12 9.5t-12 9.5q-16 12 -22 17q-3 3 -8.5 8t-8.5 8q-4 3 -8 9l-5 5l-9 9l-4 4l-4 6q-4 4 -4 9zM73 79q0 11 7 18l299 300q7 7 17 7q11 0 18 -7t7 -18t-7 -18l-299 -300q-7 -7 -17 -7q-11 0 -18 7t-7 18zM174 97l39 40q17 -4 34 -4q24 0 53 8
t51 19q26 13 46 25q23 14 37 25q15 12 23 20q-8 9 -36 30q-25 19 -52 33l36 37q11 -7 33 -23q10 -7 26 -21q7 -6 21 -20l9 -9l4 -5q1 -1 3 -3.5t3 -3.5l4 -5q4 -4 4 -10q0 -5 -4 -9l-4 -6q-1 -1 -3.5 -4t-4.5 -5l-20 -20q-8 -8 -30 -26q-18 -14 -38 -28q-20 -13 -45 -25
q-21 -10 -52 -18q-30 -8 -55 -8q-36 0 -82 16zM177 230q0 28 21 48q22 20 49 20h10l-79 -79q-1 5 -1 11zM237 161l79 80q1 -5 1 -11q0 -29 -20 -49q-21 -21 -50 -21q-6 0 -10 1z" />
    <glyph glyph-name="uniF148" unicode="&#xf148;" horiz-adv-x="135"
d="M51 29q-3 0 -9 1.5t-11.5 4l-11 5t-8.5 5t-2 3.5l45 167l-14 5l-31 -33l-9 10q10 22 27.5 40t33.5 18q4 0 12.5 -2t16 -5t13 -6.5t4.5 -5.5l-46 -170l11 -4l35 23l9 -9q-11 -18 -30 -32.5t-35 -14.5zM102 285q-30 0 -30 30q0 17 10.5 29.5t22.5 12.5q30 0 30 -32
q-1 -17 -11 -28.5t-22 -11.5z" />
    <glyph glyph-name="uniF149" unicode="&#xf149;" horiz-adv-x="415"
d="M0 158q0 22 9 40h1v1l1 1q6 12 14 20l78 78h1v1q17 15 35 21q-23 -26 -29 -58q-2 -12 -2 -20q0 -2 0.5 -5t0.5 -4l-49 -49q-8 -8 -9 -16q-1 -3 -1 -10q0 -8 1 -12q3 -8 9 -14l32 -32q10 -10 26 -10t26 10l30 31l19 19l29 29q5 5 7 9q3 7 3 17q0 8 -1 11l-1 1l-1 4l-1 1
l-2 3v1l-1 1q-1 2 -3 4l-12 12q0 3 1 4l2 3l28 28l2 2l14 -14l4 -4l1 -1q1 -1 1 -2l1 -1l1 -1l1 -2q0 -1 1 -1l1 -2l1 -1v-1l3 -4v-1q1 -2 3.5 -8t3.5 -9t1 -6q2 -10 2 -17q0 -11 -1 -16q-4 -26 -24 -46l-16 -16l-24 -24l-38 -39q-25 -25 -61 -25t-61 25l-32 33
q-16 16 -22 40q-3 12 -3 21zM132 243q0 3 2 15q4 26 24 46l16 17l24 24l38 38q25 25 61 25t61 -25l32 -32q16 -16 22 -40q3 -12 3 -21q0 -22 -9 -40h-1v-1v-1q-4 -7 -15 -20l-79 -78v-1q-19 -17 -35 -21q23 24 29 58q1 6 1 20v9l49 48q7 8 8 16q2 6 2 11q0 3 -2 11
q-4 10 -8 15l-32 32q-10 10 -26 10t-26 -10l-30 -31l-20 -19l-28 -29q-3 -3 -7 -10q-4 -12 -4 -16q0 -5 2 -11v-1l2 -4l1 -1l1 -4h1v-1l4 -4l12 -12q0 -3 -1 -4l-2 -3l-28 -28l-3 -2l-13 13l-5 5v1l-1 1q-2 2 -2 3l-1 1l-3 4v1l-3 5q-1 2 -7 17q-1 3 -1 7q-3 9 -3 17z" />
    <glyph glyph-name="uniF14A" unicode="&#xf14a;"
d="M77 269v25h256v-25h-256zM77 192v26h256v-26h-256zM77 115v26h256v-26h-256zM384 371q11 0 18.5 -7t7.5 -18v-282q0 -11 -7.5 -18.5t-18.5 -7.5h-358q-11 0 -18.5 7.5t-7.5 18.5v282q0 11 7.5 18t18.5 7h358zM384 64v282h-358v-282h358z" />
    <glyph glyph-name="uniF14B" unicode="&#xf14b;" horiz-adv-x="507"
d="M0 38v53h15q6 0 12 6q5 5 5 11v248q0 6 -5 11q-6 6 -12 6h-15v58h189l63 -229h1l64 229h190v-58h-21q-5 0 -11 -6q-5 -5 -5 -11v-247q0 -6 5 -11q6 -6 11 -6h21v-54h-181v54h37v258h-2l-90 -312h-68l-88 312h-3v-259h38v-53h-150z" />
    <glyph glyph-name="uniF14C" unicode="&#xf14c;" horiz-adv-x="256"
d="M0 38v256h256v-256h-256zM57 115h42v15h-10v72l25 -87h19l25 87v-72h-10v-15h51v15h-7q-1 0 -3 2q-1 1 -1 3v68q0 2 1 3q2 2 3 2h7v16h-53l-18 -64l-18 64h-53v-16h5q1 0 3 -2q1 -1 1 -3v-68q0 -3 -1 -4t-3 -1h-5v-15z" />
    <glyph glyph-name="uniF14D" unicode="&#xf14d;" horiz-adv-x="384"
d="M154 371h25v-25v-103v-25h-25h-128h-26v25v77v26q0 11 7.5 18t18.5 7h25h103zM154 243v103h-128v-103h128zM179 38h-25h-103h-25q-11 0 -18.5 7.5t-7.5 18.5v26v76v26h26h128h25v-26v-102v-26zM154 64v102h-128v-102h128zM205 371h25h103h25q11 0 18.5 -7t7.5 -18v-26
v-77v-25h-26h-128h-25v25v103v25zM230 346v-103h128v103h-128zM230 38h-25v26v102v26h25h128h26v-26v-76v-26q0 -11 -7.5 -18.5t-18.5 -7.5h-25h-103zM230 166v-102h128v102h-128z" />
    <glyph glyph-name="uniF14E" unicode="&#xf14e;" horiz-adv-x="466"
d="M360 -32h-254l10 46q4 21 24 21h38q26 28 11 62h-1l-43 26q-2 2 -7 6.5t-7.5 7t-8 10.5t-11.5 20q-28 11 -49 27q-48 33 -59.5 87.5t27.5 75.5q19 10 41 1l-1 3q-2 14 3 21t11.5 8t20.5 1h5h246h5q14 0 20.5 -1t11.5 -8t3 -21l-1 -3q22 9 41 -1q39 -21 27.5 -75.5
t-59.5 -87.5q-21 -16 -49 -27q-6 -12 -11.5 -20t-8 -10.5t-7.5 -7t-7 -6.5l-43 -26q-15 -35 10 -62h39q9 0 15.5 -6t8.5 -15zM68 228q19 -14 31 -17q-14 27 -20 75l-5 33q-15 8 -24 6q-24 -9 -16 -41.5t34 -55.5zM399 228q26 23 33.5 55.5t-16.5 41.5q-9 2 -24 -6
q-1 -16 -4 -33q-6 -46 -21 -75q14 4 32 17z" />
    <glyph glyph-name="uniF14F" unicode="&#xf14f;"
d="M0 173q0 22 16 38t38 16t38 -16t16 -38t-16 -38t-38 -16t-38 16t-16 38zM151 173q0 22 16 38t38 16t38 -16t16 -38t-16 -38t-38 -16t-38 16t-16 38zM301 173q0 20 16 38q15 16 39 16q22 0 38 -16t16 -38t-16 -38t-38 -16q-23 0 -39 16t-16 38z" />
    <glyph glyph-name="uniF150" unicode="&#xf150;" horiz-adv-x="484"
d="M0 25v281q0 16 11 29q10 12 25 12h203v-50h-191v-259h315v137h48v-150q0 -16 -11 -29q-10 -12 -26 -12h-338q-14 0 -25 12q-11 13 -11 29zM93 95v51h112v-51h-112zM93 186v55h205v-55h-205zM289 297v52h73v72h48v-72h74v-52h-74v-73h-48v73h-73z" />
    <glyph glyph-name="uniF151" unicode="&#xf151;" horiz-adv-x="384"
d="M358 371q11 0 18.5 -7t7.5 -18v-282q0 -11 -7.5 -18.5t-18.5 -7.5h-332q-11 0 -18.5 7.5t-7.5 18.5v282q0 11 7.5 18t18.5 7h332zM179 64v128h-153v-128h153zM179 218v128h-153v-128h153zM358 64v128h-153v-128h153zM358 218v128h-153v-128h153z" />
    <glyph glyph-name="uniF152" unicode="&#xf152;" horiz-adv-x="307"
d="M0 59v232q0 8 6 14t15 6h265q8 0 14 -6q7 -7 7 -14v-233q0 -7 -7 -14q-5 -5 -14 -5h-144l-56 -55l-11 -8l-1 2q-1 1 -4 3q-1 1 -1 3v54h-52q-7 0 -12 7t-5 14zM34 83q0 -4 3 -7t7 -3h42v-21q0 -3 7 -7l10 7l21 21h138q4 0 7 3q4 4 4 7v183q0 5 -3 8t-8 3h-217q-3 0 -7 -4
t-4 -7v-183zM86 158v35h51v50h33v-50h51v-35h-51v-51h-33v51h-51z" />
    <glyph glyph-name="uniF153" unicode="&#xf153;" horiz-adv-x="412"
d="M104 -54h-1q-7 0 -13 6t-6 13v87h-36q-20 0 -34 15q-14 16 -14 36v269q0 19 14 35t34 16h316q20 0 34 -16t14 -35v-269q0 -20 -14 -36q-14 -15 -34 -15h-145l-102 -100q-6 -6 -13 -6zM48 401q-11 0 -18 -8q-8 -10 -8 -21v-269q0 -11 8 -21q8 -8 18 -8h58v-102l104 102
h154q10 0 18 8q8 10 8 21v269q0 10 -8 20q-8 9 -18 9h-316z" />
    <glyph glyph-name="uniF154" unicode="&#xf154;" horiz-adv-x="458"
d="M119 -72q11 0 20 9l107 106h153q25 0 42 18q17 19 17 43v290q0 24 -17 43t-42 19h-340q-25 0 -42 -19t-17 -43v-290q0 -24 17 -43q17 -18 42 -18h31v-86q0 -11 9 -20t20 -9zM119 -56q-5 0 -9 4t-4 9v101h-47q-17 0 -31 14q-12 14 -12 32v290q0 20 12 32q14 14 31 14h340
q17 0 31 -14q12 -14 12 -32v-290q0 -18 -12 -32q-14 -14 -31 -14h-159l-112 -110q-4 -4 -9 -4z" />
    <glyph glyph-name="uniF155" unicode="&#xf155;" horiz-adv-x="390"
d="M0 103v269q0 15 11 28q10 12 26 12h316q15 0 26 -12q11 -13 11 -28v-269q0 -15 -11 -28q-11 -12 -26 -12h-150l-105 -103q-3 -3 -5 -3h-1q-2 0 -5 3t-3 5v98h-47q-15 0 -26 12q-11 13 -11 28z" />
    <glyph glyph-name="uniF156" unicode="&#xf156;" horiz-adv-x="462"
d="M8 142q-8 32 -8 60t8 60q15 59 59 103q45 45 104 60q32 8 60 8q27 0 59 -8q59 -15 104 -60q46 -46 60 -103q8 -32 8 -60t-8 -60q-14 -57 -60 -104q-44 -44 -104 -59q-32 -8 -59 -8q-28 0 -60 8q-58 14 -104 59q-45 46 -59 104zM153 181l74 -69q0 -3 1 -3q1 -1 2 -1
q0 1 1 1q2 0 5 3l69 69q2 0 3 1t1 3v1q0 4 -4 4h-5h-46v97q0 3 -1 5l-3 3l-1 1h-36q-4 0 -7 -3q-2 -2 -2 -6v-97h-46h-5v-4v-5z" />
    <glyph glyph-name="uniF157" unicode="&#xf157;" horiz-adv-x="279"
d="M0 215q0 8 2 12q5 42 38 99.5t57 88t33 39.5l8 8l8 -8l10 -12q10 -13 22.5 -29t29 -40t30.5 -47.5t25 -50t14 -48.5q0 -2 1 -6t1 -6v-8q-2 -52 -42.5 -88.5t-96.5 -36.5q-57 0 -97.5 37.5t-42.5 95.5zM138 432q33 -39 72 -99.5t45 -107.5q2 -2 2 -12v-2v-2
q-2 -43 -37 -74t-82 -31q-49 0 -83.5 31.5t-34.5 75.5v4q2 2 2 10q6 47 44.5 108t71.5 99zM150 151q-14 11 -8 32q6 9 20 13.5t18 8.5q20 17 20 55q0 -1 5 -9.5t9.5 -23t4.5 -28.5q0 -23 -21 -44q-25 -19 -48 -4z" />
    <glyph glyph-name="uniF158" unicode="&#xf158;" horiz-adv-x="416"
d="M368 448q20 0 34 -14t14 -33v-265q0 -19 -14 -33t-34 -14h-321q-19 0 -33 13.5t-14 33.5v265q0 19 14 33t33 14h321zM19 401v-265q0 -10 6 -13l37 55l36 -15l51 62l47 -24l114 119l87 -118v199q0 11 -9 19.5t-20 8.5h-321q-11 0 -19.5 -8.5t-8.5 -19.5zM110 299
q-19 0 -31 13q-13 12 -13 30q0 17 13 30q12 12 31 12q18 0 32 -12q13 -15 13 -30q0 -18 -13 -30q-13 -13 -32 -13z" />
    <glyph glyph-name="uniF159" unicode="&#xf159;" horiz-adv-x="351"
d="M0 83v27q0 4 2 6t6 2h160q3 0 5 -2q3 -3 3 -6v-27q0 -3 -3 -6t-5 -3h-160q-2 0 -5 3t-3 6zM0 155v29q0 3 2 5q3 3 6 3h189q3 0 6 -3q2 -2 2 -5v-29q0 -3 -2 -5q-3 -3 -6 -3h-189q-2 0 -5 3t-3 5zM0 229v22q0 3 3 8t5 5h248q3 0 5 -2q3 -3 3 -6v-27q0 -3 -3 -6
q-2 -2 -5 -2h-248q-3 0 -5 2q-3 3 -3 6zM220 118h44v52q0 7 6 7h32q3 0 4 -1t1 -5v-53h44l-65 -73z" />
    <glyph glyph-name="uniF15A" unicode="&#xf15a;" horiz-adv-x="431"
d="M0 94v277q0 6 4 10q5 5 10 5q48 2 100 -11q12 -3 34 -13q18 -8 29 -18q16 -14 22 -20t16 -20q0 1 1.5 2.5t3.5 4t4 4.5t5.5 6t4.5 6q2 3 10 11q9 9 13 12l15 10q3 2 6 3.5t6.5 3t5.5 2.5q1 1 20 6q60 14 107 11q5 0 10 -5q4 -4 4 -10v-277q0 -7 -3 -10q-2 -2 -8 -2
q-72 0 -107 -5q-23 -3 -38 -9q-16 -6 -29 -15q-15 -10 -18 -11q-8 -4 -13 -4q-6 0 -12 4q-1 0 -3 1.5t-5.5 3t-6.5 3.5l-20 10q-14 7 -24 10q-8 3 -33 7q-3 1 -11 2t-11 1q-7 1 -22 1q-5 0 -10.5 0.5t-6.5 0.5h-18l-14 -1q-7 0 -12 4q-6 5 -6 9zM43 135q0 -4 3 -7t6 -3
q29 3 62 -1q5 -1 24 -7q4 -1 9 -3t11.5 -5t10.5 -5q5 -2 10 -4.5l8 -4t4 -1.5v178q-46 49 -74 55q-34 8 -65 8q-3 0 -6 -3t-3 -7v-190zM233 93q3 1 33 15q33 15 44 16q35 4 68 1q5 0 8 3t3 7v190q0 4 -4 7q-5 3 -9 3h-16v-94l-30 25l-33 -25v80q-14 -6 -32 -19
q-21 -16 -32 -28v-181z" />
    <glyph glyph-name="uniF15B" unicode="&#xf15b;" horiz-adv-x="414"
d="M394 -44l-186 141l-188 -141v443q0 19 10 29t30 10h294q19 0 29 -10q11 -11 11 -29v-443zM208 72l206 -156v483q0 26 -17 43q-16 16 -43 16h-294q-28 0 -44 -16t-16 -43v-483z" />
    <glyph glyph-name="uniF15C" unicode="&#xf15c;" horiz-adv-x="282"
d="M0 38v334q0 16 10 26t26 10h210q16 0 26 -10t10 -26v-334l-140 108z" />
    <glyph glyph-name="uniF15D" unicode="&#xf15d;" horiz-adv-x="398"
d="M352 -57l-153 129l-151 -129q-14 -12 -30 -4t-16 27l-2 437q0 19 12.5 32t30.5 13h313q17 0 29.5 -13t12.5 -32v-437q0 -19 -16 -27t-30 4z" />
    <glyph glyph-name="uniF15E" unicode="&#xf15e;" horiz-adv-x="398"
d="M352 -57l-153 129l-151 -129q-14 -12 -30 -4t-16 27l-2 437q0 19 12.5 32t30.5 13h313q17 0 29.5 -13t12.5 -32v-437q0 -19 -16 -27t-30 4zM352 416h-306q-14 0 -14 -16l2 -433q-2 -1 35 31.5t75 65.5l37 34q19 10 37 0l148 -131v433q0 16 -14 16z" />
    <glyph glyph-name="uniF15F" unicode="&#xf15f;" horiz-adv-x="256"
d="M0 83q0 6 4 10l69 69l-68 68q-4 4 -4 10t4 10l35 35q3 5 10 5t10 -5l68 -68l68 68q5 5 10 5q7 0 10 -5l35 -35q4 -4 4 -10t-4 -10l-68 -68l69 -69q4 -4 4 -10t-4 -9l-35 -35q-5 -5 -11 -5q-5 0 -10 5l-68 68l-68 -69q-6 -4 -10 -4q-5 0 -11 4l-35 35q-4 4 -4 10z" />
    <glyph glyph-name="uniF160" unicode="&#xf160;" horiz-adv-x="443"
d="M0 120v226q0 16 10 26q11 11 24 11h288v-29h-292v-240h347v185h30v-179q0 -16 -10 -26t-25 -10h-338q-14 0 -24 10t-10 26zM42 131l33 51l31 -12l42 54l39 -21l93 102l79 -111v-63h-317zM61 275q0 13 8 21q9 9 21 9q13 0 22 -9t9 -21t-9 -21t-22 -9q-12 0 -21 9
q-8 8 -8 21zM340 353v30h36v36h31v-36h36v-30h-36v-36h-31v36h-36z" />
    <glyph glyph-name="uniF161" unicode="&#xf161;" horiz-adv-x="549"
d="M77 37q-1 -10 -3 -16q-10 -34 -33 -65l-28 -38h48q61 0 115 35q10 6 22 17q36 -10 76 -10q113 0 194 74t81 179t-81 179t-194 74t-193.5 -74t-80.5 -179q0 -100 77 -176zM108 58q-71 63 -71 155q0 89 69 153t168 64t168.5 -64t69.5 -153t-69.5 -153t-168.5 -64
q-34 0 -75 12l-10 3l-8 -8q-10 -10 -25 -19q-31 -21 -71 -28q18 30 24 55q4 20 5 24l2 16z" />
    <glyph glyph-name="uniF162" unicode="&#xf162;" horiz-adv-x="364"
d="M5 214q-5 16 -5 38q0 18 5 40q10 36 40 68q29 27 68 38q22 5 38 5q17 0 39 -5q38 -10 66 -38q26 -26 36 -58q8 -21 8 -49v-16q-3 -34 -21 -62l75 -76q10 -9 10 -25q0 -15 -10 -25t-25 -10t-26 10l-76 76q-34 -22 -75 -22q-12 0 -18 1q-52 6 -89 43q-30 30 -40 67zM53 252
q0 -40 30 -68q29 -29 68 -29q38 0 69 29q27 28 27 68q0 41 -27 71q-21 20 -44 25q-12 3 -25 3t-25 -3q-24 -6 -43 -25q-30 -30 -30 -71z" />
    <glyph glyph-name="uniF163" unicode="&#xf163;" horiz-adv-x="368"
d="M1 198q-1 8 -1 23t1 23l50 16q2 10 12 28l-25 46l9.5 9.5t6.5 7.5q11 11 17 16l47 -25q12 8 28 12l15 50q16 2 23 2l23 -2l16 -50q16 -4 28 -12l46 25q3 -3 9 -8t9 -8q1 -1 15 -17l-25 -46q9 -15 12 -28l50 -16q1 -8 1 -23t-1 -23l-50 -15q-2 -11 -11 -28l24 -46
q-13 -17 -15 -18q-7 -7 -18 -15l-46 25q-21 -10 -28 -12l-16 -50q-16 -2 -23 -2l-23 2l-15 50q-12 3 -29 12l-46 -25q-10 8 -17 15q-3 3 -15 18l24 46q-8 16 -12 28zM86 319l1 1v-1h-1zM100 221q0 -34 25 -59t59 -25q35 0 60 25t25 59q0 35 -25 60t-60 25q-34 0 -59 -25
t-25 -60z" />
    <glyph glyph-name="uniF164" unicode="&#xf164;"
d="M0 65v228q0 12 8 20q7 7 18 7h87q6 0 8 -1q4 -2 5 -6q2 -6 2 -7v-8v-12q0 -3 -4 -7t-11 -4h-67v-190h303v74q0 10 5 13q3 2 18 2h6q4 0 6 -1l4 -2q1 -1 3 -5q1 -2 1 -7v-94q0 -12 -7 -19q-8 -8 -21 -8h-337q-11 0 -19 8t-8 19zM121 147q0 25 5 41q5 18 15 32q6 9 22 25
q11 11 25 19q9 5 27 13q14 6 25 9q16 4 22 5q12 2 14 2h6v63l128 -96l-128 -101v61q-13 0 -39 -4q-19 -3 -22 -3q-20 -3 -40 -11q-18 -7 -29 -17q-10 -9 -18 -18q-10 -12 -11 -14z" />
    <glyph glyph-name="uniF165" unicode="&#xf165;" horiz-adv-x="390"
d="M37 302h36h34q6 0 10.5 -5t4.5 -11t-4.5 -10.5t-10.5 -4.5h-34h-30q-13 0 -13 -12v-280q0 -5 4 -9t9 -4h304q5 0 9 4t4 9v280q0 12 -13 12h-36h-28q-5 0 -10 4t-5 11t5 11.5t10 4.5h28h43q15 0 25.5 -11t10.5 -26v-293q0 -15 -10.5 -25.5t-25.5 -10.5h-317
q-15 0 -26 10.5t-11 25.5v293q0 15 11 26t26 11zM211 173q0 -13 -15 -13q-5 0 -10 4t-5 9v227l-46 -44q-7 -7 -17 0q-11 8 0 19l69 69q4 4 9 4q4 0 8 -4l69 -69q9 -9 0 -19q-9 -8 -17 0l-45 44v-227z" />
    <glyph glyph-name="uniF166" unicode="&#xf166;" horiz-adv-x="391"
d="M0 81q0 5 2 7l59 59l-48 48q-2 2 -2 6h-1h1q0 4 2 6q3 3 6 3h145q3 0 6 -3q2 -2 2 -6v-145q0 -4 -2 -6q-3 -3 -6 -3h-1q-4 2 -5 3l-48 47l-58 -59q-2 -2 -7 -2t-7 2l-36 36q-2 2 -2 7zM219 267v145q0 3 3 6q2 2 6 2q3 0 5 -2l48 -47l59 58q3 3 6 3q4 0 7 -3l36 -36
q2 -2 2 -7t-2 -7l-58 -58l48 -49q2 -2 2 -5q0 -4 -2 -6q-3 -3 -7 -3h-144q-3 0 -6 3t-3 6z" />
    <glyph glyph-name="uniF167" unicode="&#xf167;" horiz-adv-x="462"
d="M8 142q-8 32 -8 60t8 60q15 59 59 103q45 45 104 60q32 8 60 8q27 0 59 -8q59 -15 104 -60q46 -46 60 -103q8 -32 8 -60t-8 -60q-14 -57 -60 -104q-44 -44 -104 -59q-32 -8 -59 -8q-28 0 -60 8q-58 14 -104 59q-45 46 -59 104zM125 189q0 -5 2 -7l54 -58q3 -2 7 -4
q6 -2 7 -2h11q1 0 7 2q4 2 7 4l110 124q2 2 2 6q0 5 -2 7l-21 22q-3 3 -7 3q-3 0 -6 -3l-89 -102q-2 -2 -6 -2t-6 2l-35 37q-3 3 -6 3t-6 -3l-21 -22q-2 -2 -2 -7z" />
    <glyph glyph-name="uniF168" unicode="&#xf168;" horiz-adv-x="374"
d="M0 38v34q0 6 5 11t11 5h49q6 0 11 -5t5 -11v-34h-81zM97 38v132q0 7 5 12t12 5h49q6 0 11 -5t5 -12v-132h-82zM195 38v205q0 8 5 13t11 5h48q7 0 12 -5t5 -13v-205h-81zM293 38v348q0 8 4 13t12 5h49q7 0 11 -5q5 -7 5 -13v-347h-81v-1z" />
    <glyph glyph-name="uniF169" unicode="&#xf169;"
d="M77 115v26h256v-26h-256zM384 371q11 0 18.5 -7t7.5 -18v-282q0 -11 -7.5 -18.5t-18.5 -7.5h-358q-11 0 -18.5 7.5t-7.5 18.5v282q0 11 7.5 18t18.5 7h358zM384 64v282h-358v-282h358z" />
    <glyph glyph-name="uniF16A" unicode="&#xf16a;"
d="M0 38v26h410v-26h-410zM384 371q11 0 18.5 -7t7.5 -18v-205q0 -11 -7.5 -18.5t-18.5 -7.5h-358q-11 0 -18.5 7.5t-7.5 18.5v205q0 11 7.5 18t18.5 7h358zM384 141v205h-358v-205h358z" />
    <glyph glyph-name="uniF16B" unicode="&#xf16b;"
d="M0 346v25h410v-25h-410zM384 294q11 0 18.5 -7t7.5 -18v-205q0 -11 -7.5 -18.5t-18.5 -7.5h-358q-11 0 -18.5 7.5t-7.5 18.5v205q0 11 7.5 18t18.5 7h358zM384 64v205h-358v-205h358z" />
    <glyph glyph-name="uniF16C" unicode="&#xf16c;"
d="M51 294v26h77v-26h-77zM384 371q11 0 18.5 -7t7.5 -18v-282q0 -11 -7.5 -18.5t-18.5 -7.5h-358q-11 0 -18.5 7.5t-7.5 18.5v282q0 11 7.5 18t18.5 7h358zM384 64v282h-358v-282h358z" />
    <glyph glyph-name="uniF16D" unicode="&#xf16d;"
d="M77 269v25h256v-25h-256zM384 371q11 0 18.5 -7t7.5 -18v-282q0 -11 -7.5 -18.5t-18.5 -7.5h-358q-11 0 -18.5 7.5t-7.5 18.5v282q0 11 7.5 18t18.5 7h358zM384 64v282h-358v-282h358z" />
    <glyph glyph-name="uniF16E" unicode="&#xf16e;" horiz-adv-x="369"
d="M102 90v204h21v-204h-21zM174 90v204h21v-204h-21zM246 90v204h20v-204h-20zM31 346q0 8 6 14t14 6h266q8 0 14.5 -6t6.5 -14v-308q0 -8 -6.5 -14t-14.5 -6h-266q-8 0 -14 6t-6 14v308zM317 346h-266v-308h266v308zM0 387q0 8 6 14t14 6h328q8 0 14.5 -6t6.5 -14v-21
q0 -8 -6.5 -14t-14.5 -6h-328q-8 0 -14 6t-6 14v21zM348 387h-328v-21h328v21zM102 428v20h164v-20h-164zM102 438h164l-10 10v-20l10 10h-164l11 -10v20z" />
    <glyph glyph-name="uniF16F" unicode="&#xf16f;" horiz-adv-x="318"
d="M3 -41q-3 6 -3 13q0 15 11 30l98 122l5 103h-9q-10 0 -17 7t-7 17q0 9 7 16t17 7h109q10 0 17 -7q6 -6 6 -16q0 -9 -6 -17q-6 -7 -17 -7h-8l4 -103l96 -122q12 -16 12 -30q0 -5 -4 -13q-9 -18 -39 -18h-232q-31 0 -40 18zM86 400q0 18 12 30t30 12t30 -12q13 -13 13 -30
q0 -16 -13 -29q-12 -12 -30 -12t-30 12t-12 29zM148 327q0 13 9 22t22 9t22 -9q10 -10 10 -22q0 -11 -10 -21q-9 -9 -22 -9t-22 9t-9 21z" />
    <glyph glyph-name="uniF170" unicode="&#xf170;" horiz-adv-x="469"
d="M0 447h307v-49h-121v-308h-65v308h-121v49zM253 323h216v-42h-79v-191h-60v191h-77v42z" />
    <glyph glyph-name="uniF171" unicode="&#xf171;" horiz-adv-x="438"
d="M0 80q7 -1 22 -1q62 0 111 40q-30 0 -52 18q-23 18 -32 47q14 -2 17 -2q12 0 24 3q-32 6 -52 32t-20 59v2q21 -12 40 -12q-20 15 -29 33q-10 20 -10 44q0 26 12 47q32 -43 82 -69q47 -25 103 -28q-2 12 -2 21q0 38 26 66q26 27 63 27q18 0 36 -8q19 -9 30 -21q31 6 57 22
q-4 -13 -16 -29q-10 -12 -24 -22q26 3 52 15q-18 -28 -45 -48v-13q0 -38 -10 -74t-32 -72q-19 -31 -52 -61q-27 -24 -72 -42q-41 -16 -89 -16q-75 0 -138 42z" />
    <glyph glyph-name="uniF172" unicode="&#xf172;" horiz-adv-x="495"
d="M97 198q-10 6 -23 16q-30 24 -51 46q-10 10 -14 15l-5 5l-4 5l4 5q3 3 5 6q4 5 14 15q17 18 51 45q88 67 173 67q30 0 67 -14l1 -1l-12 -11q-31 11 -56 11q-81 0 -164 -64q-27 -21 -50 -44q-3 -3 -7 -7.5t-6 -6.5v-2q2 -2 6 -6.5t7 -7.5q23 -23 50 -44q19 -14 25 -18z
M167 162l13 11q35 -11 67 -11q29 0 61 13q41 16 91 51q26 18 57 44q12 10 17 15q-3 2 -8.5 7.5t-8.5 7.5q-31 26 -57 44q-3 2 -11.5 8t-13.5 9l11 11q4 -2 11.5 -8t11.5 -8q20 -13 58 -45q12 -10 17 -15l4 -4l2 -1l6 -6l-6 -5l-6 -6q-5 -5 -17 -15q-38 -32 -58 -45
q-45 -32 -94 -52q-40 -15 -67 -15q-37 0 -80 15zM223 222q9 -3 19 -3q28 0 48 20t20 47q0 12 -2 18l11 12q6 -14 6 -30q0 -34 -24.5 -58t-58.5 -24q-16 0 -31 6zM176 267l-12 -12q-6 13 -6 31q0 34 24.5 57.5t59.5 23.5q16 0 31 -6l-12 -12q-9 3 -19 3q-28 0 -48.5 -19.5
t-20.5 -46.5q0 -10 3 -19zM70 130l320 310l5 5l11 -11l-6 -5l-320 -310l-5 -5l-10 10z" />
    <glyph glyph-name="uniF173" unicode="&#xf173;" horiz-adv-x="485"
d="M85 196q-2 2 -5.5 4.5t-5.5 3.5q-32 25 -49 43q-3 3 -7 8t-6 7q-2 3 -5 6l-7 8l7 9q3 3 5 6q2 2 6 6.5t7 7.5q20 21 49 44q85 64 167 64q27 0 58 -11l-24 -22q-20 5 -34 5q-74 0 -149 -58q-21 -16 -46 -41q-10 -10 0 -19q25 -25 46 -41q8 -6 14 -10zM173 150l24 23
q19 -5 44 -5q26 0 56 12q36 14 84 47q19 13 53 41q10 8 0 17q-34 28 -53 41q-10 8 -15 11l20 20q2 -1 5.5 -4t5.5 -4q30 -21 55 -43q12 -10 17 -14l4 -4l2 -1l10 -11l-10 -10l-2 -2q-2 -1 -4 -3q-3 -2 -8.5 -7.5t-8.5 -7.5q-25 -22 -55 -43q-48 -34 -90 -50q-36 -14 -66 -14
q-33 0 -68 11zM315 287v-10q0 -32 -22.5 -54.5t-55.5 -22.5q-2 0 -6 0.5t-5 0.5zM247 353l-89 -86v10q0 32 23 54t56 22h10zM70 135l301 292l10 10l20 -20l-10 -10l-301 -292l-10 -10l-20 20z" />
    <glyph glyph-name="uniF174" unicode="&#xf174;" horiz-adv-x="503"
d="M83 333q-14 -8 -37 -8q-46 0 -46 44q0 21 12.5 33t32.5 12q41 0 41 -43v-8h-56q1 -21 19 -21q11 0 18 9h16v-18zM30 379h28q-1 18 -13 18q-14 0 -15 -18zM129 324q-36 0 -36 45q0 23 10.5 34t25.5 11t24 -11v21h-10v17h35q4 0 4 -6v-88q0 -4 5 -4h5v-17h-33q-3 0 -5 9
q-9 -11 -25 -11zM139 342q7 0 14 5v44q-9 3 -12 3q-18 0 -18 -25q0 -27 16 -27zM198 326v17h5q4 0 4 4v44q0 4 -4 4h-6v18h35q5 0 5 -9v-57q0 -4 4 -4h5v-17h-48zM221 418q-14 0 -14 14t14 14q15 0 15 -14t-15 -14zM280 325q-24 0 -24 21v45q0 4 -4 4h-4v18h38v-57
q0 -10 11 -10q5 0 13 2v47h-10v18h39v-66q0 -4 4 -4h5v-17h-32q-5 0 -6 11q-12 -12 -30 -12zM353 326v17h6q4 0 4 4v44q0 4 -4 4h-6v18h33q5 0 6 -12q13 13 30 13t21 -14q14 14 30 14q22 0 22 -21v-46q0 -4 5 -4h3v-17h-44v17h7v40q0 9 -10 9q-4 0 -12 -2v-47h7v-17h-44v17
h7v40q0 6 -1.5 7.5t-7.5 1.5q-5 0 -13 -2v-47h7v-17h-46z" />
  </font>
</defs>
</svg>
