<?xml version="1.0" encoding="UTF-8" standalone="no"?>
<svg width="22px" height="20px" viewBox="0 0 22 20" version="1.1" xmlns="http://www.w3.org/2000/svg" xmlns:xlink="http://www.w3.org/1999/xlink">
    <defs></defs>
    <g stroke="none" stroke-width="1" fill="none" fill-rule="evenodd">
        <g transform="translate(-298.000000, -247.000000)" fill="#956014">
            <g transform="translate(298.000000, 236.000000)">
                <path d="M17.4166667,17 C16.0178333,17 15.125,16.4573333 15.125,16.0833333 C15.125,15.7093333 16.0178333,15.1666667 17.4166667,15.1666667 C18.8145833,15.1666667 19.7083333,15.7093333 19.7083333,16.0833333 C19.7083333,16.4573333 18.8145833,17 17.4166667,17 L17.4166667,17 Z M11,14.25 C9.60116667,14.25 8.70833333,13.7073333 8.70833333,13.3333333 C8.70833333,12.9593333 9.60116667,12.4166667 11,12.4166667 C12.3979167,12.4166667 13.2916667,12.9593333 13.2916667,13.3333333 C13.2916667,13.7073333 12.3979167,14.25 11,14.25 L11,14.25 Z M11,19.2916667 C9.60116667,19.2916667 8.70833333,18.749 8.70833333,18.375 C8.70833333,18.001 9.60116667,17.4583333 11,17.4583333 C12.3979167,17.4583333 13.2916667,18.001 13.2916667,18.375 C13.2916667,18.749 12.3979167,19.2916667 11,19.2916667 L11,19.2916667 Z M5.04166667,17 C3.64283333,17 2.75,16.4573333 2.75,16.0833333 C2.75,15.7093333 3.64283333,15.1666667 5.04166667,15.1666667 C6.43958333,15.1666667 7.33333333,15.7093333 7.33333333,16.0833333 C7.33333333,16.4573333 6.43958333,17 5.04166667,17 L5.04166667,17 Z M20.3188333,16.8854167 C20.5140833,16.64525 20.625,16.3748333 20.625,16.0833333 C20.625,15.0374167 19.2454167,14.25 17.4166667,14.25 C16.57975,14.25 15.84,14.4159167 15.2808333,14.6945833 L13.926,14.1060833 C14.1065833,13.87325 14.2083333,13.6129167 14.2083333,13.3333333 C14.2083333,12.2874167 12.82875,11.5 11,11.5 C9.17125,11.5 7.79166667,12.2874167 7.79166667,13.3333333 C7.79166667,13.6129167 7.8925,13.87325 8.07308333,14.1060833 L6.95291667,14.59375 C6.42583333,14.3765 5.77041667,14.25 5.04166667,14.25 C3.21291667,14.25 1.83333333,15.0374167 1.83333333,16.0833333 C1.83333333,16.3143333 1.90391667,16.5325 2.0295,16.73325 L0.521583333,17.3895833 L11,21.9995 L21.4775,17.3895833 L20.3188333,16.8854167 Z M11.4583333,22.7990167 L11.4583333,30.1332667 L21.7240833,25.6700167 C21.8918333,25.5976 22,25.4326 22,25.2501833 L22,18.1606833 L11.4583333,22.7990167 Z M0,25.25 C0,25.4324167 0.108166667,25.5974167 0.275916667,25.6698333 L10.5416667,30.134 L10.5416667,22.7988333 L0,18.1605 L0,25.25 Z"></path>
            </g>
        </g>
    </g>
</svg>