<svg version="1.1" xmlns="http://www.w3.org/2000/svg" xmlns:xlink="http://www.w3.org/1999/xlink" x="0px" y="0px"
	 width="60px" height="60px" viewBox="738 182.2 60 60">
<path d="M738,182.2v60h60v-60H738z M769.6,233.6c-0.9,1.8-2.6,3-4.5,3.5c-3,0.7-5.9,0.3-8-1c-1.4-0.9-2.5-2.2-3.3-3.8
	c1.5-0.9,3-1.9,4.6-2.8c0,0,0.2,0.2,0.3,0.5c0.6,1,1.1,1.7,2.1,2.2c1,0.3,3.1,0.5,3.9-1.2c0.5-0.9,0.3-3.7,0.3-6.8
	c0-4.8,0-9.7,0-14.5h5.6c0,5.2,0,10.3,0,15.5C770.6,228.4,770.9,231.2,769.6,233.6z M792.9,232c-2,6.7-12.8,6.9-17.2,2.5
	c-0.9-1-1.5-1.6-2-2.8c2.3-1.3,2.3-1.3,4.6-2.6c1.2,1.9,2.3,2.9,4.4,3.3c2.8,0.3,5.5-0.6,4.9-3.5c-0.6-2.4-5.6-3-9-5.5
	c-3.5-2.3-4.3-8-1.4-11.2c0.9-1.2,2.6-2.1,4.3-2.5c0.6-0.1,1.2-0.2,1.8-0.2c3.4-0.1,5.5,0.8,7.1,2.6c0.4,0.4,0.8,0.9,1.4,1.9
	c-1.8,1.2-1.8,1.1-4.4,2.8c-0.6-1.2-1.5-1.9-2.4-2.3c-1.5-0.5-3.4,0-3.8,1.6c-0.1,0.5-0.1,0.9,0.1,1.8c0.6,1.4,2.7,2,4.5,2.8
	c5.3,2.1,7.1,4.4,7.5,7.2C793.5,230.2,793,231.8,792.9,232z"/>
</svg>
