<svg version="1.1" xmlns:svg="http://www.w3.org/2000/svg" 
	 xmlns="http://www.w3.org/2000/svg" xmlns:xlink="http://www.w3.org/1999/xlink" x="0px" y="0px" width="60px" height="60px"
	 viewBox="65.8 183.9 60 60">
	<g id="g10" transform="matrix(1.3333333,0,0,-1.3333333,0,377.94667)">
		<g id="g20" transform="translate(195.3991,146.5768)">
			<path d="M-115-22.7h-17.4L-139-14c0,0,3.5,7,15.4,7s15.5-7.1,15.5-7.1L-115-22.7z M-109.5-1h-28.1
							c-4.7,0-8.4-3.8-8.4-8.4v-28.1c0-4.7,3.8-8.4,8.4-8.4h28.1c4.7,0,8.4,3.8,8.4,8.4v28.1C-101-4.8-104.8-1-109.5-1"/>
		</g>
		<g transform="translate(142.6294,158.948)">
			<path d="M-77.3-22.9l2.2-10.1h4.3L-77.3-22.9z"/>
		</g>
	</g>
</svg>
