<?xml version="1.0" encoding="utf-8"?>
<!-- Generator: Adobe Illustrator 19.1.0, SVG Export Plug-In . SVG Version: 6.00 Build 0)  -->
<!DOCTYPE svg PUBLIC "-//W3C//DTD SVG 1.1//EN" "http://www.w3.org/Graphics/SVG/1.1/DTD/svg11.dtd">
<svg version="1.1" id="Layer_1" xmlns="http://www.w3.org/2000/svg" xmlns:xlink="http://www.w3.org/1999/xlink" x="0px" y="0px"
	 width="16px" height="17.1px" viewBox="249 359.4 16 17.1" style="enable-background:new 249 359.4 16 17.1;" xml:space="preserve"
	>
<style type="text/css">
	.st0{fill:#2F1E08;}
</style>
<path class="st0" d="M251.3,373.1h4.6v1.1h-4.6V373.1z M257,366.3h-5.7v1.1h5.7V366.3z M259.3,369.7v-2.3l-3.4,3.4l3.4,3.4V372h5.7
	v-2.3H259.3z M254.1,368.6h-2.9v1.1h2.9V368.6z M251.3,372h2.9v-1.1h-2.9V372z M261.6,373.1h1.1v2.3c0,0.3-0.1,0.6-0.3,0.8
	c-0.2,0.2-0.5,0.3-0.8,0.3h-11.4c-0.6,0-1.1-0.5-1.1-1.1v-12.6c0-0.6,0.5-1.1,1.1-1.1h3.4c0-1.3,1-2.3,2.3-2.3c1.3,0,2.3,1,2.3,2.3
	h3.4c0.6,0,1.1,0.5,1.1,1.1v5.7h-1.1v-3.4h-11.4v10.3h11.4V373.1z M251.3,364h9.1c0-0.6-0.5-1.1-1.1-1.1h-1.1
	c-0.6,0-1.1-0.5-1.1-1.1s-0.5-1.1-1.1-1.1s-1.1,0.5-1.1,1.1s-0.5,1.1-1.1,1.1h-1.1C251.8,362.9,251.3,363.4,251.3,364z"/>
</svg>
