<?xml version="1.0" encoding="utf-8"?>
<!-- Generator: Adobe Illustrator 16.0.4, SVG Export Plug-In . SVG Version: 6.00 Build 0)  -->
<!DOCTYPE svg PUBLIC "-//W3C//DTD SVG 1.1//EN" "http://www.w3.org/Graphics/SVG/1.1/DTD/svg11.dtd">
<svg version="1.1" id="Calque_1" xmlns="http://www.w3.org/2000/svg" xmlns:xlink="http://www.w3.org/1999/xlink" x="0px" y="0px"
	 width="250px" height="66px" viewBox="0 0 250 66" enable-background="new 0 0 250 66" xml:space="preserve">
<g>
	<rect x="31.99" y="10" fill="#7F7F7F" width="185" height="46"/>
	<polygon fill="#FFFFFF" points="53.63,27.47 59.35,27.47 62.77,18.06 55.52,18.06 	"/>
	<polygon fill="#FFFFFF" points="50.78,20.55 44.98,20.55 44.98,46.7 60.42,46.7 60.42,41.82 50.78,41.82 	"/>
	<polygon fill="#FFFFFF" points="71.74,35.65 77.73,35.65 78.75,30.76 71.74,30.76 71.74,25.44 81.74,25.44 81.74,20.55
		65.93,20.55 65.93,30.27 63.79,30.27 62.8,36.12 65.93,36.12 65.93,46.7 82.13,46.7 82.13,41.82 71.74,41.82 	"/>
	<path fill="#FFFFFF" d="M145.37,28.49c0-3.62-1.67-7.93-9.58-7.93h-7.87V46.7h5.801V36.28h2.039l4.561,10.409h6.24l-5.211-11.52
		C144.01,34.109,145.37,31.86,145.37,28.49z M139.57,28.42c0,2.2-1.12,3.26-3.44,3.26h-2.42v-6.52h2.42
		C138.45,25.16,139.57,26.22,139.57,28.42z"/>
	<polygon fill="#FFFFFF" points="155.18,35.65 161.18,35.65 162.189,30.76 155.18,30.76 155.18,25.44 165.189,25.44 165.189,20.55
		149.38,20.55 149.38,30.27 147.2,30.27 146.2,36.12 149.38,36.12 149.38,46.7 165.57,46.7 165.57,41.82 155.18,41.82 	"/>
	<path fill="#FFFFFF" d="M177.37,30.76c-2.21-1.08-4.13-2.02-4.13-3.4c0-1.59,0.92-2.46,2.6-2.46c1.7,0,2.74,0.92,3.57,3.18
		l0.09,0.24l5.23-1.39l-0.07-0.27c-1.03-3.99-4.2-6.29-8.7-6.29c-5.42,0-8.521,2.66-8.521,7.29c0,4.03,3.65,5.84,6.86,7.449
		c2.591,1.291,4.83,2.41,4.83,4.361c0,1.619-1.19,2.709-2.95,2.709c-1.449,0-3.209-1.02-3.789-3.869l-0.061-0.271l-5.73,1.12
		l0.08,0.3c1.35,4.74,4.541,7.25,9.23,7.25c5.55,0,9.01-2.851,9.01-7.43C184.93,34.46,180.73,32.41,177.37,30.76z"/>
	<path fill="#FFFFFF" d="M196.76,30.76c-2.21-1.08-4.119-2.02-4.119-3.4c0-1.59,0.92-2.46,2.6-2.46c1.699,0,2.74,0.92,3.57,3.18
		l0.09,0.24l5.22-1.39l-0.07-0.27c-1.03-3.99-4.2-6.29-8.7-6.29c-5.41,0-8.52,2.66-8.52,7.29c0,4.03,3.65,5.84,6.859,7.449
		c2.59,1.291,4.83,2.41,4.83,4.361c0,1.619-1.18,2.709-2.949,2.709c-1.461,0-3.211-1.02-3.791-3.869l-0.049-0.271L186,39.15
		l0.09,0.3c1.35,4.739,4.54,7.25,9.23,7.25c5.56,0,9.01-2.851,9.01-7.431C204.33,34.46,200.13,32.41,196.76,30.76z"/>
	<polygon fill="#FFFFFF" points="94.58,26.75 91.02,20.27 83.64,20.27 90.88,32.23 	"/>
	<polygon fill="#FFFFFF" points="106.84,20.27 99.46,20.27 95.25,27.56 91.77,32.93 82.91,46.97 90.34,46.97 95.46,38.7
		100.16,46.95 107.58,46.95 99.06,32.92 	"/>
	<path fill="#FFFFFF" d="M116.39,20.55h-7.84V46.7h5.8V36.42l0,0V31.8l0,0v-6.65h2.53c2.42,0,3.59,1.09,3.59,3.33
		c0,2.25-1.17,3.33-3.59,3.33h-1.55h-0.01v4.6h0.01h1.06c6.37,0,9.879-2.82,9.879-7.94C126.27,23.37,122.76,20.55,116.39,20.55z"/>
</g>
</svg>
