<?xml version="1.0" encoding="utf-8"?>
<svg version="1.1" xmlns="http://www.w3.org/2000/svg" xmlns:xlink="http://www.w3.org/1999/xlink" x="0px" y="0px" viewBox="0 0 68 19" xml:space="preserve">
	<style type="text/css">
		.a1{fill:#8d9295;}
		.a2{fill:#505050;}
	</style>
	<g>
		<g class="a1">
			<path d="M7.155,14.281l-0.022-1.357c-1.082,1.043-1.897,1.625-3.154,1.625c-1.737,0-3.613-1.194-3.613-3.562V4.701
				H1.48v6.088c0,1.914,1.397,2.843,2.723,2.843c1.056,0,1.69-0.473,2.854-1.678V4.701H8.17v9.581H7.155z"/>
			<path d="M18.014,9.51c0,3.086-1.292,5.021-3.848,5.021c-0.96,0-1.718-0.255-3.093-1.541v5.852H9.959V4.701h1.015
				l0.022,1.291C11.88,4.799,13.049,4.466,14,4.466C16.572,4.466,18.014,6.466,18.014,9.51z M11.073,7.104l-0.008,4.793
				c1.378,1.481,1.99,1.734,2.887,1.734c2.076,0,2.948-1.57,2.948-4.126c0-2.446-1.06-4.141-3.148-4.141
				C12.883,5.365,11.864,5.685,11.073,7.104z"/>
			<path d="M41.312,14.281l-2.23-7.645l-2.23,7.645h-1.171l-3.041-9.581h1.127l2.49,7.978l2.298-7.978h1.055l2.298,7.978
				l2.49-7.978h1.128l-3.042,9.581H41.312z"/>
			<path d="M54.176,9.491c0,2.899-1.548,5.04-4.436,5.04c-2.858,0-4.436-2.195-4.436-5.04s1.578-5.044,4.436-5.044
				C52.556,4.447,54.176,6.553,54.176,9.491z M49.74,5.351c-2.067,0-3.322,1.668-3.322,4.14s1.255,4.141,3.322,4.141
				c2.099,0,3.322-1.618,3.322-4.141C53.062,6.939,51.788,5.35,49.74,5.351L49.74,5.351z"/>
			<path d="M59.752,5.364l-0.297-0.002c-1.032,0-2.08,0.556-2.875,1.958v6.961h-1.114V4.701h1.015l0.024,1.539
				c0.791-1.166,1.915-1.781,3.072-1.788l0.191,0.001L59.752,5.364z"/>
			<path d="M65.937,4.701h1.238l-3.241,3.798l3.7,5.783h-1.273l-3.1-4.903l-1.567,1.755v3.148H60.58V0.158h1.114v9.366
				L65.937,4.701z"/>
		</g>
		<g class="a2">
			<path class="st0" d="M23.256,4.701v0.856h-2.521v4.753c0,0.969,0.236,1.729,0.626,2.24c0.464,0.575,1.087,0.892,1.945,0.987
				l-0.013,0.859c-1.104-0.076-2.059-0.444-2.679-1.132c-0.648-0.702-0.992-1.674-0.992-2.955V5.557h-1.682V4.701h1.682V1.906h1.113
				v2.795H23.256z"/>
			<path class="st0" d="M32.638,9.491c0,2.899-1.548,5.04-4.436,5.04c-2.857,0-4.436-2.195-4.436-5.04s1.579-5.044,4.436-5.044
				C31.018,4.447,32.638,6.553,32.638,9.491z M28.202,5.351c-2.067,0-3.322,1.668-3.322,4.14s1.255,4.141,3.322,4.141
				c2.099,0,3.323-1.618,3.323-4.141C31.525,6.939,30.25,5.35,28.202,5.351L28.202,5.351z"/>
		</g>
	</g>
</svg>
